%TF.GenerationSoftware,KiCad,Pcbnew,9.0.3*%
%TF.CreationDate,2025-07-19T19:00:48+05:30*%
%TF.ProjectId,piano wkshp,7069616e-6f20-4776-9b73-68702e6b6963,rev?*%
%TF.SameCoordinates,Original*%
%TF.FileFunction,Soldermask,Bot*%
%TF.FilePolarity,Negative*%
%FSLAX46Y46*%
G04 Gerber Fmt 4.6, Leading zero omitted, Abs format (unit mm)*
G04 Created by KiCad (PCBNEW 9.0.3) date 2025-07-19 19:00:48*
%MOMM*%
%LPD*%
G01*
G04 APERTURE LIST*
G04 Aperture macros list*
%AMRoundRect*
0 Rectangle with rounded corners*
0 $1 Rounding radius*
0 $2 $3 $4 $5 $6 $7 $8 $9 X,Y pos of 4 corners*
0 Add a 4 corners polygon primitive as box body*
4,1,4,$2,$3,$4,$5,$6,$7,$8,$9,$2,$3,0*
0 Add four circle primitives for the rounded corners*
1,1,$1+$1,$2,$3*
1,1,$1+$1,$4,$5*
1,1,$1+$1,$6,$7*
1,1,$1+$1,$8,$9*
0 Add four rect primitives between the rounded corners*
20,1,$1+$1,$2,$3,$4,$5,0*
20,1,$1+$1,$4,$5,$6,$7,0*
20,1,$1+$1,$6,$7,$8,$9,0*
20,1,$1+$1,$8,$9,$2,$3,0*%
G04 Aperture macros list end*
%ADD10C,2.000000*%
%ADD11C,1.600000*%
%ADD12RoundRect,0.250000X-1.050000X-1.050000X1.050000X-1.050000X1.050000X1.050000X-1.050000X1.050000X0*%
%ADD13C,2.600000*%
%ADD14RoundRect,0.250000X1.050000X1.050000X-1.050000X1.050000X-1.050000X-1.050000X1.050000X-1.050000X0*%
%ADD15RoundRect,0.250000X0.550000X0.550000X-0.550000X0.550000X-0.550000X-0.550000X0.550000X-0.550000X0*%
G04 APERTURE END LIST*
D10*
%TO.C,SW3*%
X99000000Y-118000000D03*
X92500000Y-118000000D03*
X99000000Y-113500000D03*
X92500000Y-113500000D03*
%TD*%
D11*
%TO.C,R6*%
X129363000Y-103669000D03*
X139523000Y-103669000D03*
%TD*%
%TO.C,R1*%
X59420000Y-104050000D03*
X69580000Y-104050000D03*
%TD*%
%TO.C,C1*%
X202500000Y-117500000D03*
X202500000Y-122500000D03*
%TD*%
%TO.C,R5*%
X115266000Y-103669000D03*
X125426000Y-103669000D03*
%TD*%
%TO.C,R3*%
X87834000Y-103669000D03*
X97994000Y-103669000D03*
%TD*%
D10*
%TO.C,SW5*%
X122500000Y-118500000D03*
X116000000Y-118500000D03*
X122500000Y-114000000D03*
X116000000Y-114000000D03*
%TD*%
D11*
%TO.C,R7*%
X157000000Y-91080000D03*
X157000000Y-80920000D03*
%TD*%
%TO.C,C2*%
X206000000Y-91000000D03*
X206000000Y-96000000D03*
%TD*%
%TO.C,R4*%
X101550000Y-103669000D03*
X111710000Y-103669000D03*
%TD*%
D10*
%TO.C,SW6*%
X135000000Y-118500000D03*
X128500000Y-118500000D03*
X135000000Y-114000000D03*
X128500000Y-114000000D03*
%TD*%
%TO.C,SW4*%
X111000000Y-118500000D03*
X104500000Y-118500000D03*
X111000000Y-114000000D03*
X104500000Y-114000000D03*
%TD*%
D11*
%TO.C,R2*%
X73420000Y-103923000D03*
X83580000Y-103923000D03*
%TD*%
D12*
%TO.C,LS1*%
X218000000Y-108672500D03*
D13*
X223000000Y-108672500D03*
%TD*%
D14*
%TO.C,J1*%
X180500000Y-85827500D03*
D13*
X175500000Y-85827500D03*
%TD*%
D10*
%TO.C,SW2*%
X86250000Y-117750000D03*
X79750000Y-117750000D03*
X86250000Y-113250000D03*
X79750000Y-113250000D03*
%TD*%
D15*
%TO.C,U1*%
X174805000Y-108810000D03*
D11*
X174805000Y-106270000D03*
X174805000Y-103730000D03*
X174805000Y-101190000D03*
X167185000Y-101190000D03*
X167185000Y-103730000D03*
X167185000Y-106270000D03*
X167185000Y-108810000D03*
%TD*%
D10*
%TO.C,SW1*%
X73000000Y-117500000D03*
X66500000Y-117500000D03*
X73000000Y-113000000D03*
X66500000Y-113000000D03*
%TD*%
M02*
