M48
; DRILL file {KiCad 9.0.3} date 2025-07-19T19:00:52+0530
; FORMAT={-:-/ absolute / metric / decimal}
; #@! TF.CreationDate,2025-07-19T19:00:52+05:30
; #@! TF.GenerationSoftware,Kicad,Pcbnew,9.0.3
; #@! TF.FileFunction,MixedPlating,1,2
FMAT,2
METRIC
; #@! TA.AperFunction,Plated,PTH,ComponentDrill
T1C0.800
; #@! TA.AperFunction,Plated,PTH,ComponentDrill
T2C1.100
; #@! TA.AperFunction,Plated,PTH,ComponentDrill
T3C1.300
%
G90
G05
T1
X59.42Y-104.05
X69.58Y-104.05
X73.42Y-103.923
X83.58Y-103.923
X87.834Y-103.669
X97.994Y-103.669
X101.55Y-103.669
X111.71Y-103.669
X115.266Y-103.669
X125.426Y-103.669
X129.363Y-103.669
X139.523Y-103.669
X157.0Y-80.92
X157.0Y-91.08
X167.185Y-101.19
X167.185Y-103.73
X167.185Y-106.27
X167.185Y-108.81
X174.805Y-101.19
X174.805Y-103.73
X174.805Y-106.27
X174.805Y-108.81
X202.5Y-117.5
X202.5Y-122.5
X206.0Y-91.0
X206.0Y-96.0
T2
X66.5Y-113.0
X66.5Y-117.5
X73.0Y-113.0
X73.0Y-117.5
X79.75Y-113.25
X79.75Y-117.75
X86.25Y-113.25
X86.25Y-117.75
X92.5Y-113.5
X92.5Y-118.0
X99.0Y-113.5
X99.0Y-118.0
X104.5Y-114.0
X104.5Y-118.5
X111.0Y-114.0
X111.0Y-118.5
X116.0Y-114.0
X116.0Y-118.5
X122.5Y-114.0
X122.5Y-118.5
X128.5Y-114.0
X128.5Y-118.5
X135.0Y-114.0
X135.0Y-118.5
T3
X175.5Y-85.828
X180.5Y-85.828
X218.0Y-108.672
X223.0Y-108.672
M30
