%TF.GenerationSoftware,KiCad,Pcbnew,9.0.3*%
%TF.CreationDate,2025-07-20T02:49:59+05:30*%
%TF.ProjectId,BUCK CONVERTER FINAL,4255434b-2043-44f4-9e56-455254455220,rev?*%
%TF.SameCoordinates,Original*%
%TF.FileFunction,Soldermask,Top*%
%TF.FilePolarity,Negative*%
%FSLAX46Y46*%
G04 Gerber Fmt 4.6, Leading zero omitted, Abs format (unit mm)*
G04 Created by KiCad (PCBNEW 9.0.3) date 2025-07-20 02:49:59*
%MOMM*%
%LPD*%
G01*
G04 APERTURE LIST*
G04 Aperture macros list*
%AMRoundRect*
0 Rectangle with rounded corners*
0 $1 Rounding radius*
0 $2 $3 $4 $5 $6 $7 $8 $9 X,Y pos of 4 corners*
0 Add a 4 corners polygon primitive as box body*
4,1,4,$2,$3,$4,$5,$6,$7,$8,$9,$2,$3,0*
0 Add four circle primitives for the rounded corners*
1,1,$1+$1,$2,$3*
1,1,$1+$1,$4,$5*
1,1,$1+$1,$6,$7*
1,1,$1+$1,$8,$9*
0 Add four rect primitives between the rounded corners*
20,1,$1+$1,$2,$3,$4,$5,0*
20,1,$1+$1,$4,$5,$6,$7,0*
20,1,$1+$1,$6,$7,$8,$9,0*
20,1,$1+$1,$8,$9,$2,$3,0*%
G04 Aperture macros list end*
%ADD10R,5.400000X2.900000*%
%ADD11RoundRect,0.250000X-2.050000X-0.300000X2.050000X-0.300000X2.050000X0.300000X-2.050000X0.300000X0*%
%ADD12RoundRect,0.250002X-4.449998X-5.149998X4.449998X-5.149998X4.449998X5.149998X-4.449998X5.149998X0*%
%ADD13C,1.440000*%
%ADD14RoundRect,0.237500X-0.250000X-0.237500X0.250000X-0.237500X0.250000X0.237500X-0.250000X0.237500X0*%
%ADD15RoundRect,0.250000X-0.825000X-0.825000X0.825000X-0.825000X0.825000X0.825000X-0.825000X0.825000X0*%
%ADD16RoundRect,0.250000X-0.375000X-0.625000X0.375000X-0.625000X0.375000X0.625000X-0.375000X0.625000X0*%
%ADD17RoundRect,0.237500X-0.300000X-0.237500X0.300000X-0.237500X0.300000X0.237500X-0.300000X0.237500X0*%
%ADD18RoundRect,0.250000X-1.500000X-1.000000X1.500000X-1.000000X1.500000X1.000000X-1.500000X1.000000X0*%
%ADD19C,3.000000*%
G04 APERTURE END LIST*
D10*
%TO.C,L1*%
X174200000Y-84650000D03*
X174200000Y-94550000D03*
%TD*%
D11*
%TO.C,U1*%
X124800000Y-85400000D03*
X124800000Y-87100000D03*
X124800000Y-88800000D03*
D12*
X133950000Y-88800000D03*
D11*
X124800000Y-90500000D03*
X124800000Y-92200000D03*
%TD*%
D13*
%TO.C,R2*%
X160940000Y-78920000D03*
X158400000Y-81460000D03*
X155860000Y-78920000D03*
%TD*%
D14*
%TO.C,R1*%
X146175000Y-97000000D03*
X148000000Y-97000000D03*
%TD*%
D15*
%TO.C,J2*%
X207600000Y-90600000D03*
%TD*%
%TO.C,J1*%
X70800000Y-102600000D03*
%TD*%
D16*
%TO.C,D1*%
X152200000Y-105200000D03*
X155000000Y-105200000D03*
%TD*%
D17*
%TO.C,C4*%
X177275000Y-73600000D03*
X179000000Y-73600000D03*
%TD*%
D18*
%TO.C,C3*%
X184550000Y-105200000D03*
X191050000Y-105200000D03*
%TD*%
%TO.C,C2*%
X87550000Y-102200000D03*
X94050000Y-102200000D03*
%TD*%
D17*
%TO.C,C1*%
X104337500Y-95600000D03*
X106062500Y-95600000D03*
%TD*%
D19*
X152939566Y-105200000D02*
X154044620Y-104094946D01*
X152200000Y-105200000D02*
X152939566Y-105200000D01*
X163000000Y-95200000D02*
X163650000Y-94550000D01*
X163650000Y-94550000D02*
X174200000Y-94550000D01*
X191050000Y-105200000D02*
X189499000Y-106751000D01*
X156551000Y-106751000D02*
X155000000Y-105200000D01*
X189499000Y-106751000D02*
X156551000Y-106751000D01*
X184550000Y-105200000D02*
X184550000Y-95000000D01*
X159340000Y-82400000D02*
X158400000Y-81460000D01*
X184550000Y-95000000D02*
X174200000Y-84650000D01*
X152200000Y-105200000D02*
X136600000Y-105200000D01*
X160940000Y-82460000D02*
X160940000Y-78920000D01*
X148000000Y-97200000D02*
X155000000Y-104200000D01*
X179000000Y-73600000D02*
X179000000Y-79850000D01*
X159800000Y-82400000D02*
X159340000Y-82400000D01*
X179000000Y-79850000D02*
X174200000Y-84650000D01*
X148200000Y-95200000D02*
X160940000Y-82460000D01*
X207600000Y-90600000D02*
X188950000Y-90600000D01*
X188950000Y-90600000D02*
X184550000Y-95000000D01*
X166260000Y-73600000D02*
X160940000Y-78920000D01*
X174200000Y-84650000D02*
X162650000Y-84650000D01*
X162650000Y-84650000D02*
X161200000Y-83200000D01*
X177275000Y-73600000D02*
X166260000Y-73600000D01*
X148000000Y-97000000D02*
X139800000Y-88800000D01*
X135400000Y-105200000D02*
X125800000Y-95600000D01*
X146175000Y-97000000D02*
X131665840Y-97000000D01*
X139800000Y-88800000D02*
X133950000Y-88800000D01*
X94150000Y-95600000D02*
X104337500Y-95600000D01*
X94050000Y-102200000D02*
X99462500Y-102200000D01*
X87550000Y-102200000D02*
X94150000Y-95600000D01*
X131665840Y-97000000D02*
X127401000Y-92735160D01*
X70800000Y-102600000D02*
X87150000Y-102600000D01*
X99462500Y-102200000D02*
X106062500Y-95600000D01*
X123363840Y-92200000D02*
X122199000Y-91035160D01*
X114537500Y-85400000D02*
X124800000Y-85400000D01*
X104337500Y-95600000D02*
X114537500Y-85400000D01*
X106062500Y-95600000D02*
X121400000Y-95600000D01*
X121400000Y-95600000D02*
X124800000Y-92200000D01*
X124800000Y-88800000D02*
X133950000Y-88800000D01*
X122199000Y-89964840D02*
X123363840Y-88800000D01*
X122199000Y-91035160D02*
X122199000Y-89964840D01*
X123363840Y-88800000D02*
X124800000Y-88800000D01*
M02*
