%TF.GenerationSoftware,KiCad,Pcbnew,9.0.3*%
%TF.CreationDate,2025-07-20T02:49:58+05:30*%
%TF.ProjectId,BUCK CONVERTER FINAL,4255434b-2043-44f4-9e56-455254455220,rev?*%
%TF.SameCoordinates,Original*%
%TF.FileFunction,Copper,L1,Top*%
%TF.FilePolarity,Positive*%
%FSLAX46Y46*%
G04 Gerber Fmt 4.6, Leading zero omitted, Abs format (unit mm)*
G04 Created by KiCad (PCBNEW 9.0.3) date 2025-07-20 02:49:58*
%MOMM*%
%LPD*%
G01*
G04 APERTURE LIST*
G04 Aperture macros list*
%AMRoundRect*
0 Rectangle with rounded corners*
0 $1 Rounding radius*
0 $2 $3 $4 $5 $6 $7 $8 $9 X,Y pos of 4 corners*
0 Add a 4 corners polygon primitive as box body*
4,1,4,$2,$3,$4,$5,$6,$7,$8,$9,$2,$3,0*
0 Add four circle primitives for the rounded corners*
1,1,$1+$1,$2,$3*
1,1,$1+$1,$4,$5*
1,1,$1+$1,$6,$7*
1,1,$1+$1,$8,$9*
0 Add four rect primitives between the rounded corners*
20,1,$1+$1,$2,$3,$4,$5,0*
20,1,$1+$1,$4,$5,$6,$7,0*
20,1,$1+$1,$6,$7,$8,$9,0*
20,1,$1+$1,$8,$9,$2,$3,0*%
G04 Aperture macros list end*
%TA.AperFunction,SMDPad,CuDef*%
%ADD10R,5.400000X2.900000*%
%TD*%
%TA.AperFunction,SMDPad,CuDef*%
%ADD11RoundRect,0.250000X-2.050000X-0.300000X2.050000X-0.300000X2.050000X0.300000X-2.050000X0.300000X0*%
%TD*%
%TA.AperFunction,SMDPad,CuDef*%
%ADD12RoundRect,0.250002X-4.449998X-5.149998X4.449998X-5.149998X4.449998X5.149998X-4.449998X5.149998X0*%
%TD*%
%TA.AperFunction,ComponentPad*%
%ADD13C,1.440000*%
%TD*%
%TA.AperFunction,SMDPad,CuDef*%
%ADD14RoundRect,0.237500X-0.250000X-0.237500X0.250000X-0.237500X0.250000X0.237500X-0.250000X0.237500X0*%
%TD*%
%TA.AperFunction,ComponentPad*%
%ADD15RoundRect,0.250000X-0.825000X-0.825000X0.825000X-0.825000X0.825000X0.825000X-0.825000X0.825000X0*%
%TD*%
%TA.AperFunction,SMDPad,CuDef*%
%ADD16RoundRect,0.250000X-0.375000X-0.625000X0.375000X-0.625000X0.375000X0.625000X-0.375000X0.625000X0*%
%TD*%
%TA.AperFunction,SMDPad,CuDef*%
%ADD17RoundRect,0.237500X-0.300000X-0.237500X0.300000X-0.237500X0.300000X0.237500X-0.300000X0.237500X0*%
%TD*%
%TA.AperFunction,SMDPad,CuDef*%
%ADD18RoundRect,0.250000X-1.500000X-1.000000X1.500000X-1.000000X1.500000X1.000000X-1.500000X1.000000X0*%
%TD*%
%TA.AperFunction,ViaPad*%
%ADD19C,0.600000*%
%TD*%
%TA.AperFunction,Conductor*%
%ADD20C,1.000000*%
%TD*%
G04 APERTURE END LIST*
D10*
%TO.P,L1,2,2*%
%TO.N,Net-(J2-Pin_1)*%
X174200000Y-84650000D03*
%TO.P,L1,1,1*%
%TO.N,Net-(D1-K)*%
X174200000Y-94550000D03*
%TD*%
D11*
%TO.P,U1,1,VIN*%
%TO.N,Net-(J1-Pin_1)*%
X124800000Y-85400000D03*
%TO.P,U1,2,OUT*%
%TO.N,Net-(D1-K)*%
X124800000Y-87100000D03*
%TO.P,U1,3,GND*%
%TO.N,GND*%
X124800000Y-88800000D03*
D12*
X133950000Y-88800000D03*
D11*
%TO.P,U1,4,FB*%
%TO.N,Net-(U1-FB)*%
X124800000Y-90500000D03*
%TO.P,U1,5,~{ON}/OFF*%
%TO.N,GND*%
X124800000Y-92200000D03*
%TD*%
D13*
%TO.P,R2,1*%
%TO.N,Net-(U1-FB)*%
X160940000Y-78920000D03*
%TO.P,R2,2*%
%TO.N,Net-(J2-Pin_1)*%
X158400000Y-81460000D03*
%TO.P,R2,3*%
%TO.N,N/C*%
X155860000Y-78920000D03*
%TD*%
D14*
%TO.P,R1,1*%
%TO.N,Net-(U1-FB)*%
X146175000Y-97000000D03*
%TO.P,R1,2*%
%TO.N,GND*%
X148000000Y-97000000D03*
%TD*%
D15*
%TO.P,J2,1,Pin_1*%
%TO.N,Net-(J2-Pin_1)*%
X207600000Y-90600000D03*
%TD*%
%TO.P,J1,1,Pin_1*%
%TO.N,Net-(J1-Pin_1)*%
X70800000Y-102600000D03*
%TD*%
D16*
%TO.P,D1,1,K*%
%TO.N,Net-(D1-K)*%
X152200000Y-105200000D03*
%TO.P,D1,2,A*%
%TO.N,GND*%
X155000000Y-105200000D03*
%TD*%
D17*
%TO.P,C4,1*%
%TO.N,Net-(U1-FB)*%
X177275000Y-73600000D03*
%TO.P,C4,2*%
%TO.N,Net-(J2-Pin_1)*%
X179000000Y-73600000D03*
%TD*%
D18*
%TO.P,C3,1*%
%TO.N,Net-(J2-Pin_1)*%
X184550000Y-105200000D03*
%TO.P,C3,2*%
%TO.N,GND*%
X191050000Y-105200000D03*
%TD*%
%TO.P,C2,1*%
%TO.N,Net-(J1-Pin_1)*%
X87550000Y-102200000D03*
%TO.P,C2,2*%
%TO.N,GND*%
X94050000Y-102200000D03*
%TD*%
D17*
%TO.P,C1,1*%
%TO.N,Net-(J1-Pin_1)*%
X104337500Y-95600000D03*
%TO.P,C1,2*%
%TO.N,GND*%
X106062500Y-95600000D03*
%TD*%
D19*
%TO.N,Net-(D1-K)*%
X123470589Y-87750000D03*
%TO.N,Net-(J2-Pin_1)*%
X161200000Y-83200000D03*
%TO.N,Net-(U1-FB)*%
X146775735Y-96624265D03*
%TO.N,Net-(J2-Pin_1)*%
X159800000Y-82400000D03*
%TO.N,Net-(D1-K)*%
X125800000Y-95600000D03*
%TO.N,Net-(U1-FB)*%
X148200000Y-95200000D03*
%TO.N,Net-(D1-K)*%
X154044620Y-104094946D03*
X163000000Y-95200000D03*
%TD*%
D20*
%TO.N,Net-(D1-K)*%
X152939566Y-105200000D02*
X154044620Y-104094946D01*
X152200000Y-105200000D02*
X152939566Y-105200000D01*
X163000000Y-95200000D02*
X163650000Y-94550000D01*
X163650000Y-94550000D02*
X174200000Y-94550000D01*
%TO.N,GND*%
X191050000Y-105200000D02*
X189499000Y-106751000D01*
X156551000Y-106751000D02*
X155000000Y-105200000D01*
X189499000Y-106751000D02*
X156551000Y-106751000D01*
%TO.N,Net-(J2-Pin_1)*%
X184550000Y-105200000D02*
X184550000Y-95000000D01*
X159340000Y-82400000D02*
X158400000Y-81460000D01*
X184550000Y-95000000D02*
X174200000Y-84650000D01*
%TO.N,Net-(D1-K)*%
X152200000Y-105200000D02*
X136600000Y-105200000D01*
%TO.N,Net-(U1-FB)*%
X160940000Y-82460000D02*
X160940000Y-78920000D01*
%TO.N,GND*%
X148000000Y-97200000D02*
X155000000Y-104200000D01*
%TO.N,Net-(J2-Pin_1)*%
X179000000Y-73600000D02*
X179000000Y-79850000D01*
X159800000Y-82400000D02*
X159340000Y-82400000D01*
X179000000Y-79850000D02*
X174200000Y-84650000D01*
%TO.N,Net-(U1-FB)*%
X148200000Y-95200000D02*
X160940000Y-82460000D01*
%TO.N,Net-(J2-Pin_1)*%
X207600000Y-90600000D02*
X188950000Y-90600000D01*
X188950000Y-90600000D02*
X184550000Y-95000000D01*
%TO.N,Net-(U1-FB)*%
X166260000Y-73600000D02*
X160940000Y-78920000D01*
%TO.N,Net-(J2-Pin_1)*%
X174200000Y-84650000D02*
X162650000Y-84650000D01*
X162650000Y-84650000D02*
X161200000Y-83200000D01*
%TO.N,Net-(U1-FB)*%
X177275000Y-73600000D02*
X166260000Y-73600000D01*
%TO.N,GND*%
X148000000Y-97000000D02*
X139800000Y-88800000D01*
%TO.N,Net-(D1-K)*%
X135400000Y-105200000D02*
X125800000Y-95600000D01*
%TO.N,Net-(U1-FB)*%
X146175000Y-97000000D02*
X131665840Y-97000000D01*
%TO.N,GND*%
X139800000Y-88800000D02*
X133950000Y-88800000D01*
%TO.N,Net-(J1-Pin_1)*%
X94150000Y-95600000D02*
X104337500Y-95600000D01*
%TO.N,GND*%
X94050000Y-102200000D02*
X99462500Y-102200000D01*
%TO.N,Net-(J1-Pin_1)*%
X87550000Y-102200000D02*
X94150000Y-95600000D01*
%TO.N,Net-(U1-FB)*%
X131665840Y-97000000D02*
X127401000Y-92735160D01*
%TO.N,Net-(J1-Pin_1)*%
X70800000Y-102600000D02*
X87150000Y-102600000D01*
%TO.N,GND*%
X99462500Y-102200000D02*
X106062500Y-95600000D01*
X123363840Y-92200000D02*
X122199000Y-91035160D01*
%TO.N,Net-(J1-Pin_1)*%
X114537500Y-85400000D02*
X124800000Y-85400000D01*
X104337500Y-95600000D02*
X114537500Y-85400000D01*
%TO.N,GND*%
X106062500Y-95600000D02*
X121400000Y-95600000D01*
X121400000Y-95600000D02*
X124800000Y-92200000D01*
X124800000Y-88800000D02*
X133950000Y-88800000D01*
X122199000Y-89964840D02*
X123363840Y-88800000D01*
X122199000Y-91035160D02*
X122199000Y-89964840D01*
X123363840Y-88800000D02*
X124800000Y-88800000D01*
%TO.N,Net-(D1-K)*%
X136600000Y-105200000D02*
X135400000Y-105200000D01*
%TO.N,Net-(U1-FB)*%
X146400000Y-97000000D02*
X146775735Y-96624265D01*
%TO.N,GND*%
X148000000Y-97000000D02*
X148000000Y-97200000D01*
%TO.N,Net-(U1-FB)*%
X127401000Y-92735160D02*
X127401000Y-91664840D01*
%TO.N,Net-(D1-K)*%
X124150000Y-87750000D02*
X124800000Y-87100000D01*
%TO.N,Net-(U1-FB)*%
X146175000Y-97000000D02*
X146400000Y-97000000D01*
%TO.N,GND*%
X155000000Y-104200000D02*
X155000000Y-105200000D01*
%TO.N,Net-(U1-FB)*%
X126236160Y-90500000D02*
X124800000Y-90500000D01*
X127401000Y-91664840D02*
X126236160Y-90500000D01*
%TO.N,Net-(J1-Pin_1)*%
X87150000Y-102600000D02*
X87550000Y-102200000D01*
%TO.N,Net-(D1-K)*%
X123470589Y-87750000D02*
X124150000Y-87750000D01*
%TO.N,GND*%
X124800000Y-92200000D02*
X123363840Y-92200000D01*
%TD*%
M02*
