%TF.GenerationSoftware,KiCad,Pcbnew,9.0.3*%
%TF.CreationDate,2025-07-20T02:49:59+05:30*%
%TF.ProjectId,BUCK CONVERTER FINAL,4255434b-2043-44f4-9e56-455254455220,rev?*%
%TF.SameCoordinates,Original*%
%TF.FileFunction,Legend,Top*%
%TF.FilePolarity,Positive*%
%FSLAX46Y46*%
G04 Gerber Fmt 4.6, Leading zero omitted, Abs format (unit mm)*
G04 Created by KiCad (PCBNEW 9.0.3) date 2025-07-20 02:49:59*
%MOMM*%
%LPD*%
G01*
G04 APERTURE LIST*
%ADD10C,0.150000*%
%ADD11C,0.000000*%
%ADD12C,0.120000*%
%ADD13C,0.010000*%
G04 APERTURE END LIST*
D10*
X167254819Y-89766666D02*
X167254819Y-90242856D01*
X167254819Y-90242856D02*
X166254819Y-90242856D01*
X167254819Y-88909523D02*
X167254819Y-89480951D01*
X167254819Y-89195237D02*
X166254819Y-89195237D01*
X166254819Y-89195237D02*
X166397676Y-89290475D01*
X166397676Y-89290475D02*
X166492914Y-89385713D01*
X166492914Y-89385713D02*
X166540533Y-89480951D01*
X131688095Y-81604819D02*
X131688095Y-82414342D01*
X131688095Y-82414342D02*
X131735714Y-82509580D01*
X131735714Y-82509580D02*
X131783333Y-82557200D01*
X131783333Y-82557200D02*
X131878571Y-82604819D01*
X131878571Y-82604819D02*
X132069047Y-82604819D01*
X132069047Y-82604819D02*
X132164285Y-82557200D01*
X132164285Y-82557200D02*
X132211904Y-82509580D01*
X132211904Y-82509580D02*
X132259523Y-82414342D01*
X132259523Y-82414342D02*
X132259523Y-81604819D01*
X133259523Y-82604819D02*
X132688095Y-82604819D01*
X132973809Y-82604819D02*
X132973809Y-81604819D01*
X132973809Y-81604819D02*
X132878571Y-81747676D01*
X132878571Y-81747676D02*
X132783333Y-81842914D01*
X132783333Y-81842914D02*
X132688095Y-81890533D01*
X158233333Y-76984819D02*
X157900000Y-76508628D01*
X157661905Y-76984819D02*
X157661905Y-75984819D01*
X157661905Y-75984819D02*
X158042857Y-75984819D01*
X158042857Y-75984819D02*
X158138095Y-76032438D01*
X158138095Y-76032438D02*
X158185714Y-76080057D01*
X158185714Y-76080057D02*
X158233333Y-76175295D01*
X158233333Y-76175295D02*
X158233333Y-76318152D01*
X158233333Y-76318152D02*
X158185714Y-76413390D01*
X158185714Y-76413390D02*
X158138095Y-76461009D01*
X158138095Y-76461009D02*
X158042857Y-76508628D01*
X158042857Y-76508628D02*
X157661905Y-76508628D01*
X158614286Y-76080057D02*
X158661905Y-76032438D01*
X158661905Y-76032438D02*
X158757143Y-75984819D01*
X158757143Y-75984819D02*
X158995238Y-75984819D01*
X158995238Y-75984819D02*
X159090476Y-76032438D01*
X159090476Y-76032438D02*
X159138095Y-76080057D01*
X159138095Y-76080057D02*
X159185714Y-76175295D01*
X159185714Y-76175295D02*
X159185714Y-76270533D01*
X159185714Y-76270533D02*
X159138095Y-76413390D01*
X159138095Y-76413390D02*
X158566667Y-76984819D01*
X158566667Y-76984819D02*
X159185714Y-76984819D01*
X146920833Y-96024819D02*
X146587500Y-95548628D01*
X146349405Y-96024819D02*
X146349405Y-95024819D01*
X146349405Y-95024819D02*
X146730357Y-95024819D01*
X146730357Y-95024819D02*
X146825595Y-95072438D01*
X146825595Y-95072438D02*
X146873214Y-95120057D01*
X146873214Y-95120057D02*
X146920833Y-95215295D01*
X146920833Y-95215295D02*
X146920833Y-95358152D01*
X146920833Y-95358152D02*
X146873214Y-95453390D01*
X146873214Y-95453390D02*
X146825595Y-95501009D01*
X146825595Y-95501009D02*
X146730357Y-95548628D01*
X146730357Y-95548628D02*
X146349405Y-95548628D01*
X147873214Y-96024819D02*
X147301786Y-96024819D01*
X147587500Y-96024819D02*
X147587500Y-95024819D01*
X147587500Y-95024819D02*
X147492262Y-95167676D01*
X147492262Y-95167676D02*
X147397024Y-95262914D01*
X147397024Y-95262914D02*
X147301786Y-95310533D01*
X207266666Y-87774819D02*
X207266666Y-88489104D01*
X207266666Y-88489104D02*
X207219047Y-88631961D01*
X207219047Y-88631961D02*
X207123809Y-88727200D01*
X207123809Y-88727200D02*
X206980952Y-88774819D01*
X206980952Y-88774819D02*
X206885714Y-88774819D01*
X207695238Y-87870057D02*
X207742857Y-87822438D01*
X207742857Y-87822438D02*
X207838095Y-87774819D01*
X207838095Y-87774819D02*
X208076190Y-87774819D01*
X208076190Y-87774819D02*
X208171428Y-87822438D01*
X208171428Y-87822438D02*
X208219047Y-87870057D01*
X208219047Y-87870057D02*
X208266666Y-87965295D01*
X208266666Y-87965295D02*
X208266666Y-88060533D01*
X208266666Y-88060533D02*
X208219047Y-88203390D01*
X208219047Y-88203390D02*
X207647619Y-88774819D01*
X207647619Y-88774819D02*
X208266666Y-88774819D01*
X70466666Y-99774819D02*
X70466666Y-100489104D01*
X70466666Y-100489104D02*
X70419047Y-100631961D01*
X70419047Y-100631961D02*
X70323809Y-100727200D01*
X70323809Y-100727200D02*
X70180952Y-100774819D01*
X70180952Y-100774819D02*
X70085714Y-100774819D01*
X71466666Y-100774819D02*
X70895238Y-100774819D01*
X71180952Y-100774819D02*
X71180952Y-99774819D01*
X71180952Y-99774819D02*
X71085714Y-99917676D01*
X71085714Y-99917676D02*
X70990476Y-100012914D01*
X70990476Y-100012914D02*
X70895238Y-100060533D01*
X152861905Y-103824819D02*
X152861905Y-102824819D01*
X152861905Y-102824819D02*
X153100000Y-102824819D01*
X153100000Y-102824819D02*
X153242857Y-102872438D01*
X153242857Y-102872438D02*
X153338095Y-102967676D01*
X153338095Y-102967676D02*
X153385714Y-103062914D01*
X153385714Y-103062914D02*
X153433333Y-103253390D01*
X153433333Y-103253390D02*
X153433333Y-103396247D01*
X153433333Y-103396247D02*
X153385714Y-103586723D01*
X153385714Y-103586723D02*
X153338095Y-103681961D01*
X153338095Y-103681961D02*
X153242857Y-103777200D01*
X153242857Y-103777200D02*
X153100000Y-103824819D01*
X153100000Y-103824819D02*
X152861905Y-103824819D01*
X154385714Y-103824819D02*
X153814286Y-103824819D01*
X154100000Y-103824819D02*
X154100000Y-102824819D01*
X154100000Y-102824819D02*
X154004762Y-102967676D01*
X154004762Y-102967676D02*
X153909524Y-103062914D01*
X153909524Y-103062914D02*
X153814286Y-103110533D01*
X177970833Y-72529580D02*
X177923214Y-72577200D01*
X177923214Y-72577200D02*
X177780357Y-72624819D01*
X177780357Y-72624819D02*
X177685119Y-72624819D01*
X177685119Y-72624819D02*
X177542262Y-72577200D01*
X177542262Y-72577200D02*
X177447024Y-72481961D01*
X177447024Y-72481961D02*
X177399405Y-72386723D01*
X177399405Y-72386723D02*
X177351786Y-72196247D01*
X177351786Y-72196247D02*
X177351786Y-72053390D01*
X177351786Y-72053390D02*
X177399405Y-71862914D01*
X177399405Y-71862914D02*
X177447024Y-71767676D01*
X177447024Y-71767676D02*
X177542262Y-71672438D01*
X177542262Y-71672438D02*
X177685119Y-71624819D01*
X177685119Y-71624819D02*
X177780357Y-71624819D01*
X177780357Y-71624819D02*
X177923214Y-71672438D01*
X177923214Y-71672438D02*
X177970833Y-71720057D01*
X178827976Y-71958152D02*
X178827976Y-72624819D01*
X178589881Y-71577200D02*
X178351786Y-72291485D01*
X178351786Y-72291485D02*
X178970833Y-72291485D01*
X187633333Y-100359580D02*
X187585714Y-100407200D01*
X187585714Y-100407200D02*
X187442857Y-100454819D01*
X187442857Y-100454819D02*
X187347619Y-100454819D01*
X187347619Y-100454819D02*
X187204762Y-100407200D01*
X187204762Y-100407200D02*
X187109524Y-100311961D01*
X187109524Y-100311961D02*
X187061905Y-100216723D01*
X187061905Y-100216723D02*
X187014286Y-100026247D01*
X187014286Y-100026247D02*
X187014286Y-99883390D01*
X187014286Y-99883390D02*
X187061905Y-99692914D01*
X187061905Y-99692914D02*
X187109524Y-99597676D01*
X187109524Y-99597676D02*
X187204762Y-99502438D01*
X187204762Y-99502438D02*
X187347619Y-99454819D01*
X187347619Y-99454819D02*
X187442857Y-99454819D01*
X187442857Y-99454819D02*
X187585714Y-99502438D01*
X187585714Y-99502438D02*
X187633333Y-99550057D01*
X187966667Y-99454819D02*
X188585714Y-99454819D01*
X188585714Y-99454819D02*
X188252381Y-99835771D01*
X188252381Y-99835771D02*
X188395238Y-99835771D01*
X188395238Y-99835771D02*
X188490476Y-99883390D01*
X188490476Y-99883390D02*
X188538095Y-99931009D01*
X188538095Y-99931009D02*
X188585714Y-100026247D01*
X188585714Y-100026247D02*
X188585714Y-100264342D01*
X188585714Y-100264342D02*
X188538095Y-100359580D01*
X188538095Y-100359580D02*
X188490476Y-100407200D01*
X188490476Y-100407200D02*
X188395238Y-100454819D01*
X188395238Y-100454819D02*
X188109524Y-100454819D01*
X188109524Y-100454819D02*
X188014286Y-100407200D01*
X188014286Y-100407200D02*
X187966667Y-100359580D01*
X90633333Y-97359580D02*
X90585714Y-97407200D01*
X90585714Y-97407200D02*
X90442857Y-97454819D01*
X90442857Y-97454819D02*
X90347619Y-97454819D01*
X90347619Y-97454819D02*
X90204762Y-97407200D01*
X90204762Y-97407200D02*
X90109524Y-97311961D01*
X90109524Y-97311961D02*
X90061905Y-97216723D01*
X90061905Y-97216723D02*
X90014286Y-97026247D01*
X90014286Y-97026247D02*
X90014286Y-96883390D01*
X90014286Y-96883390D02*
X90061905Y-96692914D01*
X90061905Y-96692914D02*
X90109524Y-96597676D01*
X90109524Y-96597676D02*
X90204762Y-96502438D01*
X90204762Y-96502438D02*
X90347619Y-96454819D01*
X90347619Y-96454819D02*
X90442857Y-96454819D01*
X90442857Y-96454819D02*
X90585714Y-96502438D01*
X90585714Y-96502438D02*
X90633333Y-96550057D01*
X91014286Y-96550057D02*
X91061905Y-96502438D01*
X91061905Y-96502438D02*
X91157143Y-96454819D01*
X91157143Y-96454819D02*
X91395238Y-96454819D01*
X91395238Y-96454819D02*
X91490476Y-96502438D01*
X91490476Y-96502438D02*
X91538095Y-96550057D01*
X91538095Y-96550057D02*
X91585714Y-96645295D01*
X91585714Y-96645295D02*
X91585714Y-96740533D01*
X91585714Y-96740533D02*
X91538095Y-96883390D01*
X91538095Y-96883390D02*
X90966667Y-97454819D01*
X90966667Y-97454819D02*
X91585714Y-97454819D01*
X105033333Y-94529580D02*
X104985714Y-94577200D01*
X104985714Y-94577200D02*
X104842857Y-94624819D01*
X104842857Y-94624819D02*
X104747619Y-94624819D01*
X104747619Y-94624819D02*
X104604762Y-94577200D01*
X104604762Y-94577200D02*
X104509524Y-94481961D01*
X104509524Y-94481961D02*
X104461905Y-94386723D01*
X104461905Y-94386723D02*
X104414286Y-94196247D01*
X104414286Y-94196247D02*
X104414286Y-94053390D01*
X104414286Y-94053390D02*
X104461905Y-93862914D01*
X104461905Y-93862914D02*
X104509524Y-93767676D01*
X104509524Y-93767676D02*
X104604762Y-93672438D01*
X104604762Y-93672438D02*
X104747619Y-93624819D01*
X104747619Y-93624819D02*
X104842857Y-93624819D01*
X104842857Y-93624819D02*
X104985714Y-93672438D01*
X104985714Y-93672438D02*
X105033333Y-93720057D01*
X105985714Y-94624819D02*
X105414286Y-94624819D01*
X105700000Y-94624819D02*
X105700000Y-93624819D01*
X105700000Y-93624819D02*
X105604762Y-93767676D01*
X105604762Y-93767676D02*
X105509524Y-93862914D01*
X105509524Y-93862914D02*
X105414286Y-93910533D01*
D11*
%TO.C,REF\u002A\u002A*%
G36*
X214026820Y-119539310D02*
G01*
X214059285Y-119576812D01*
X214077098Y-119664407D01*
X214084580Y-119822625D01*
X214086056Y-120057080D01*
X214084385Y-120301418D01*
X214076490Y-120455626D01*
X214058049Y-120540236D01*
X214024740Y-120575776D01*
X213975381Y-120582788D01*
X213923941Y-120574850D01*
X213891476Y-120537348D01*
X213873664Y-120449753D01*
X213866182Y-120291535D01*
X213864706Y-120057080D01*
X213866377Y-119812742D01*
X213874272Y-119658534D01*
X213892713Y-119573924D01*
X213926022Y-119538384D01*
X213975381Y-119531372D01*
X214026820Y-119539310D01*
G37*
G36*
X214739972Y-119538824D02*
G01*
X214834469Y-119564973D01*
X214860784Y-119614378D01*
X214818784Y-119675771D01*
X214684742Y-119697235D01*
X214667102Y-119697385D01*
X214536123Y-119707721D01*
X214482502Y-119754234D01*
X214473420Y-119835729D01*
X214487891Y-119929286D01*
X214553009Y-119967586D01*
X214667102Y-119974073D01*
X214810352Y-119992073D01*
X214860434Y-120049520D01*
X214860784Y-120057080D01*
X214818784Y-120118473D01*
X214684742Y-120139936D01*
X214667102Y-120140087D01*
X214536123Y-120150423D01*
X214482502Y-120196936D01*
X214473420Y-120278431D01*
X214487891Y-120371987D01*
X214553009Y-120410288D01*
X214667102Y-120416775D01*
X214810352Y-120434775D01*
X214860434Y-120492222D01*
X214860784Y-120499782D01*
X214833459Y-120549839D01*
X214737579Y-120575611D01*
X214556427Y-120582788D01*
X214252069Y-120582788D01*
X214252069Y-120057080D01*
X214252069Y-119531372D01*
X214556427Y-119531372D01*
X214739972Y-119538824D01*
G37*
G36*
X215570038Y-119538824D02*
G01*
X215664534Y-119564973D01*
X215690849Y-119614378D01*
X215648850Y-119675771D01*
X215514807Y-119697235D01*
X215497167Y-119697385D01*
X215366188Y-119707721D01*
X215312568Y-119754234D01*
X215303485Y-119835729D01*
X215321353Y-119934600D01*
X215397306Y-119970770D01*
X215469499Y-119974073D01*
X215601297Y-119998821D01*
X215635512Y-120057080D01*
X215586016Y-120122979D01*
X215469499Y-120140087D01*
X215350854Y-120154976D01*
X215307450Y-120218270D01*
X215303485Y-120278431D01*
X215317956Y-120371987D01*
X215383075Y-120410288D01*
X215497167Y-120416775D01*
X215640418Y-120434775D01*
X215690499Y-120492222D01*
X215690849Y-120499782D01*
X215663525Y-120549839D01*
X215567645Y-120575611D01*
X215386492Y-120582788D01*
X215082135Y-120582788D01*
X215082135Y-120057080D01*
X215082135Y-119531372D01*
X215386492Y-119531372D01*
X215570038Y-119538824D01*
G37*
G36*
X216344765Y-119538824D02*
G01*
X216439262Y-119564973D01*
X216465577Y-119614378D01*
X216423577Y-119675771D01*
X216289535Y-119697235D01*
X216271895Y-119697385D01*
X216140916Y-119707721D01*
X216087295Y-119754234D01*
X216078213Y-119835729D01*
X216096081Y-119934600D01*
X216172034Y-119970770D01*
X216244226Y-119974073D01*
X216376025Y-119998821D01*
X216410239Y-120057080D01*
X216360744Y-120122979D01*
X216244226Y-120140087D01*
X216125581Y-120154976D01*
X216082178Y-120218270D01*
X216078213Y-120278431D01*
X216092684Y-120371987D01*
X216157802Y-120410288D01*
X216271895Y-120416775D01*
X216415145Y-120434775D01*
X216465227Y-120492222D01*
X216465577Y-120499782D01*
X216438252Y-120549839D01*
X216342372Y-120575611D01*
X216161220Y-120582788D01*
X215856862Y-120582788D01*
X215856862Y-120057080D01*
X215856862Y-119531372D01*
X216161220Y-119531372D01*
X216344765Y-119538824D01*
G37*
G36*
X217818354Y-119901195D02*
G01*
X217715697Y-120177891D01*
X217641955Y-120367275D01*
X217587817Y-120485900D01*
X217543969Y-120550317D01*
X217501098Y-120577077D01*
X217449891Y-120582732D01*
X217434846Y-120582788D01*
X217370475Y-120568653D01*
X217313652Y-120513559D01*
X217252700Y-120398470D01*
X217175945Y-120204352D01*
X217137202Y-120097517D01*
X217048970Y-119849063D01*
X216995545Y-119686590D01*
X216974547Y-119591837D01*
X216983596Y-119546544D01*
X217020310Y-119532451D01*
X217063399Y-119531372D01*
X217128102Y-119561198D01*
X217192127Y-119661709D01*
X217265019Y-119849452D01*
X217289411Y-119923298D01*
X217354118Y-120105859D01*
X217410605Y-120232691D01*
X217448318Y-120280767D01*
X217452482Y-120279106D01*
X217488014Y-120211317D01*
X217544541Y-120069858D01*
X217604432Y-119901014D01*
X217680821Y-119701175D01*
X217750327Y-119589075D01*
X217826631Y-119543707D01*
X217838533Y-119541500D01*
X217957525Y-119523959D01*
X217818354Y-119901195D01*
G37*
G36*
X218558273Y-119538824D02*
G01*
X218652770Y-119564973D01*
X218679085Y-119614378D01*
X218637085Y-119675771D01*
X218503042Y-119697235D01*
X218485403Y-119697385D01*
X218354424Y-119707721D01*
X218300803Y-119754234D01*
X218291721Y-119835729D01*
X218309588Y-119934600D01*
X218385541Y-119970770D01*
X218457734Y-119974073D01*
X218589533Y-119998821D01*
X218623747Y-120057080D01*
X218574251Y-120122979D01*
X218457734Y-120140087D01*
X218339089Y-120154976D01*
X218295685Y-120218270D01*
X218291721Y-120278431D01*
X218306191Y-120371987D01*
X218371310Y-120410288D01*
X218485403Y-120416775D01*
X218628653Y-120434775D01*
X218678734Y-120492222D01*
X218679085Y-120499782D01*
X218651760Y-120549839D01*
X218555880Y-120575611D01*
X218374727Y-120582788D01*
X218070370Y-120582788D01*
X218070370Y-120057080D01*
X218070370Y-119531372D01*
X218374727Y-119531372D01*
X218558273Y-119538824D01*
G37*
G36*
X219371017Y-119562554D02*
G01*
X219501331Y-119640447D01*
X219563358Y-119741575D01*
X219564488Y-119756675D01*
X219521804Y-119800432D01*
X219426351Y-119802558D01*
X219327023Y-119765162D01*
X219302586Y-119745375D01*
X219202046Y-119707735D01*
X219153175Y-119715969D01*
X219072217Y-119779756D01*
X219091165Y-119860983D01*
X219203206Y-119947773D01*
X219315468Y-119998801D01*
X219481278Y-120077921D01*
X219559709Y-120170682D01*
X219572609Y-120308559D01*
X219567217Y-120361437D01*
X219503671Y-120479206D01*
X219371212Y-120555058D01*
X219205908Y-120582121D01*
X219043828Y-120553521D01*
X218936681Y-120481590D01*
X218866259Y-120390311D01*
X218845098Y-120343246D01*
X218888137Y-120308754D01*
X218989319Y-120317409D01*
X219106737Y-120365034D01*
X219115207Y-120370171D01*
X219228398Y-120405144D01*
X219332600Y-120387628D01*
X219387477Y-120329268D01*
X219385156Y-120292236D01*
X219322551Y-120222906D01*
X219203023Y-120152082D01*
X219200706Y-120151045D01*
X219021336Y-120066991D01*
X218920109Y-120002993D01*
X218872153Y-119938647D01*
X218854485Y-119867018D01*
X218880896Y-119712282D01*
X218991842Y-119593226D01*
X219161785Y-119534001D01*
X219209417Y-119531372D01*
X219371017Y-119562554D01*
G37*
G36*
X219947953Y-119539310D02*
G01*
X219980418Y-119576812D01*
X219998231Y-119664407D01*
X220005713Y-119822625D01*
X220007189Y-120057080D01*
X220005518Y-120301418D01*
X219997623Y-120455626D01*
X219979182Y-120540236D01*
X219945873Y-120575776D01*
X219896514Y-120582788D01*
X219845074Y-120574850D01*
X219812609Y-120537348D01*
X219794797Y-120449753D01*
X219787315Y-120291535D01*
X219785838Y-120057080D01*
X219787510Y-119812742D01*
X219795405Y-119658534D01*
X219813846Y-119573924D01*
X219847155Y-119538384D01*
X219896514Y-119531372D01*
X219947953Y-119539310D01*
G37*
G36*
X220715690Y-119536253D02*
G01*
X220836143Y-119553806D01*
X220886945Y-119588392D01*
X220892592Y-119614378D01*
X220844487Y-119681139D01*
X220754248Y-119697385D01*
X220685635Y-119702103D01*
X220644551Y-119731309D01*
X220623939Y-119807587D01*
X220616743Y-119953515D01*
X220615904Y-120140087D01*
X220613593Y-120360659D01*
X220602951Y-120492854D01*
X220578411Y-120558933D01*
X220534409Y-120581159D01*
X220505228Y-120582788D01*
X220450085Y-120573546D01*
X220417036Y-120530976D01*
X220400517Y-120432818D01*
X220394960Y-120256808D01*
X220394553Y-120140087D01*
X220393079Y-119920525D01*
X220383952Y-119789056D01*
X220360115Y-119723098D01*
X220314512Y-119700071D01*
X220256209Y-119697385D01*
X220144942Y-119668522D01*
X220117865Y-119614378D01*
X220140645Y-119569280D01*
X220222557Y-119543468D01*
X220383957Y-119532582D01*
X220505228Y-119531372D01*
X220715690Y-119536253D01*
G37*
G36*
X217515937Y-108395913D02*
G01*
X217687276Y-108558426D01*
X217793682Y-108698812D01*
X218065072Y-109073174D01*
X218402758Y-109497885D01*
X218788189Y-109952236D01*
X219202812Y-110415513D01*
X219628075Y-110867006D01*
X220045426Y-111286002D01*
X220436312Y-111651791D01*
X220448678Y-111662833D01*
X220705377Y-111884733D01*
X221012709Y-112139827D01*
X221331732Y-112396302D01*
X221618401Y-112618487D01*
X221850177Y-112798145D01*
X222050010Y-112961434D01*
X222200939Y-113093854D01*
X222286002Y-113180903D01*
X222297543Y-113199107D01*
X222316297Y-113317657D01*
X222269216Y-113433736D01*
X222145066Y-113562666D01*
X221932613Y-113719771D01*
X221899488Y-113742020D01*
X221346524Y-114142146D01*
X220759223Y-114624912D01*
X220153722Y-115174463D01*
X219546155Y-115774942D01*
X218952659Y-116410493D01*
X218389370Y-117065260D01*
X217941952Y-117630916D01*
X217735494Y-117896076D01*
X217576575Y-118079176D01*
X217452058Y-118190718D01*
X217348807Y-118241205D01*
X217253685Y-118241138D01*
X217200596Y-118223578D01*
X217141212Y-118168189D01*
X217037270Y-118042808D01*
X216906197Y-117869132D01*
X216828500Y-117760375D01*
X216183709Y-116912646D01*
X215444445Y-116070738D01*
X214626440Y-115250694D01*
X213745422Y-114468557D01*
X213079848Y-113937093D01*
X212793439Y-113713303D01*
X212590092Y-113539496D01*
X212460509Y-113404676D01*
X212441866Y-113374093D01*
X213677897Y-113374093D01*
X213681293Y-113391683D01*
X213756618Y-113566721D01*
X213905697Y-113801308D01*
X214117548Y-114083802D01*
X214381187Y-114402560D01*
X214685631Y-114745938D01*
X215019896Y-115102293D01*
X215372998Y-115459983D01*
X215733955Y-115807364D01*
X216091783Y-116132793D01*
X216435497Y-116424628D01*
X216754116Y-116671224D01*
X216818697Y-116717504D01*
X217050864Y-116868990D01*
X217242056Y-116954196D01*
X217417201Y-116971184D01*
X217601227Y-116918017D01*
X217819060Y-116792755D01*
X218058862Y-116621089D01*
X218305102Y-116422688D01*
X218604633Y-116159233D01*
X218938406Y-115849430D01*
X219287372Y-115511987D01*
X219632480Y-115165610D01*
X219954681Y-114829005D01*
X220234925Y-114520879D01*
X220420562Y-114301960D01*
X220672360Y-113983809D01*
X220852259Y-113728604D01*
X220961938Y-113516617D01*
X221003078Y-113328120D01*
X220977359Y-113143386D01*
X220886462Y-112942687D01*
X220732067Y-112706295D01*
X220574695Y-112492491D01*
X220365317Y-112231195D01*
X220096824Y-111922113D01*
X219786515Y-111582921D01*
X219451694Y-111231297D01*
X219109662Y-110884917D01*
X218777721Y-110561460D01*
X218473172Y-110278602D01*
X218213318Y-110054020D01*
X218103072Y-109967240D01*
X217817185Y-109767788D01*
X217587363Y-109645572D01*
X217396066Y-109595173D01*
X217225755Y-109611174D01*
X217107924Y-109659890D01*
X216870507Y-109808773D01*
X216582181Y-110025477D01*
X216255798Y-110297109D01*
X215904210Y-110610777D01*
X215540267Y-110953590D01*
X215176823Y-111312657D01*
X214826727Y-111675085D01*
X214502831Y-112027984D01*
X214217986Y-112358462D01*
X213985044Y-112653627D01*
X213816857Y-112900588D01*
X213747699Y-113030617D01*
X213687954Y-113217368D01*
X213677897Y-113374093D01*
X212441866Y-113374093D01*
X212395388Y-113297848D01*
X212385431Y-113208017D01*
X212409154Y-113144134D01*
X212470166Y-113079672D01*
X212600626Y-112967293D01*
X212780238Y-112823852D01*
X212952071Y-112693302D01*
X213410294Y-112342359D01*
X213832941Y-111994629D01*
X214246671Y-111626521D01*
X214678141Y-111214447D01*
X215083731Y-110806898D01*
X215417692Y-110462812D01*
X215691796Y-110173524D01*
X215925536Y-109916675D01*
X216138403Y-109669910D01*
X216349890Y-109410869D01*
X216579489Y-109117197D01*
X216740540Y-108906535D01*
X216903935Y-108696517D01*
X217049780Y-108518057D01*
X217161731Y-108390581D01*
X217221976Y-108334296D01*
X217356037Y-108318143D01*
X217515937Y-108395913D01*
G37*
G36*
X217477927Y-109861341D02*
G01*
X217640850Y-109929850D01*
X217834946Y-110059434D01*
X217917463Y-110121043D01*
X218145487Y-110301105D01*
X218399342Y-110512822D01*
X218625063Y-110711157D01*
X218630282Y-110715923D01*
X218799190Y-110869296D01*
X218942487Y-110997468D01*
X219036272Y-111079127D01*
X219052461Y-111092374D01*
X219148578Y-111181635D01*
X219299064Y-111338171D01*
X219487925Y-111543832D01*
X219699163Y-111780467D01*
X219916783Y-112029925D01*
X220124789Y-112274055D01*
X220307185Y-112494705D01*
X220447974Y-112673727D01*
X220458764Y-112688125D01*
X220607293Y-112893533D01*
X220711310Y-113065133D01*
X220767034Y-113218467D01*
X220770685Y-113369080D01*
X220718480Y-113532516D01*
X220606638Y-113724321D01*
X220431379Y-113960037D01*
X220188920Y-114255210D01*
X220032529Y-114440304D01*
X219748760Y-114761125D01*
X219437298Y-115089354D01*
X219109801Y-115414830D01*
X218777924Y-115727389D01*
X218453325Y-116016870D01*
X218147659Y-116273108D01*
X217872584Y-116485943D01*
X217639757Y-116645209D01*
X217460833Y-116740746D01*
X217366699Y-116764487D01*
X217292119Y-116740167D01*
X217167146Y-116680364D01*
X217143349Y-116667646D01*
X216935477Y-116533290D01*
X216669832Y-116328632D01*
X216360752Y-116067332D01*
X216022573Y-115763046D01*
X215969702Y-115713071D01*
X217018954Y-115713071D01*
X217347585Y-115713071D01*
X217676216Y-115713071D01*
X217647390Y-115007516D01*
X217634856Y-114734833D01*
X217621448Y-114499718D01*
X217608689Y-114325697D01*
X217598104Y-114236297D01*
X217597184Y-114232788D01*
X217529912Y-114186867D01*
X217380568Y-114164633D01*
X217333250Y-114163616D01*
X217090696Y-114163616D01*
X217055156Y-114620152D01*
X217037596Y-114886792D01*
X217024788Y-115159358D01*
X217019327Y-115381866D01*
X217019286Y-115394880D01*
X217018954Y-115713071D01*
X215969702Y-115713071D01*
X215669633Y-115429436D01*
X215316268Y-115080158D01*
X214976815Y-114728873D01*
X214665610Y-114389238D01*
X214396991Y-114074912D01*
X214316712Y-113974710D01*
X214127567Y-113724010D01*
X214005361Y-113533371D01*
X213940908Y-113382514D01*
X213925019Y-113251165D01*
X213931638Y-113208221D01*
X215198397Y-113208221D01*
X215230400Y-113388527D01*
X215360411Y-113556385D01*
X215530798Y-113672753D01*
X215782011Y-113789699D01*
X216084838Y-113895940D01*
X216410066Y-113980191D01*
X216507479Y-113999463D01*
X216716037Y-114021693D01*
X217000128Y-114030681D01*
X217328275Y-114027660D01*
X217668998Y-114013863D01*
X217990818Y-113990520D01*
X218262255Y-113958865D01*
X218438977Y-113923863D01*
X218789194Y-113801017D01*
X219044766Y-113657068D01*
X219202592Y-113497124D01*
X219259569Y-113326293D01*
X219212593Y-113149683D01*
X219058564Y-112972402D01*
X219030681Y-112949703D01*
X218942515Y-112862289D01*
X218919351Y-112799798D01*
X218922825Y-112794675D01*
X218892937Y-112764010D01*
X218778171Y-112718514D01*
X218601757Y-112667050D01*
X218562340Y-112657121D01*
X218367584Y-112612141D01*
X218219744Y-112583443D01*
X218146736Y-112576337D01*
X218143889Y-112577533D01*
X218147625Y-112636564D01*
X218181298Y-112756674D01*
X218188111Y-112776654D01*
X218243222Y-112897668D01*
X218314150Y-112936400D01*
X218400574Y-112927183D01*
X218562969Y-112934488D01*
X218741547Y-112996678D01*
X218882244Y-113092397D01*
X218912159Y-113129275D01*
X218955579Y-113288928D01*
X218904403Y-113445700D01*
X218814607Y-113534170D01*
X218573617Y-113653640D01*
X218276404Y-113741361D01*
X217940265Y-113798413D01*
X217582496Y-113825875D01*
X217220396Y-113824829D01*
X216871262Y-113796354D01*
X216552391Y-113741530D01*
X216281080Y-113661438D01*
X216074627Y-113557157D01*
X215950329Y-113429769D01*
X215923733Y-113353641D01*
X215957169Y-113225748D01*
X216082187Y-113091054D01*
X216281883Y-112964669D01*
X216433542Y-112897960D01*
X216693549Y-112799263D01*
X216470074Y-112651374D01*
X216323178Y-112563889D01*
X216205735Y-112510826D01*
X216171245Y-112503485D01*
X216086064Y-112526994D01*
X215935729Y-112588575D01*
X215756046Y-112673308D01*
X215461871Y-112849157D01*
X215275771Y-113027947D01*
X215198397Y-113208221D01*
X213931638Y-113208221D01*
X213941228Y-113146000D01*
X214006555Y-113007977D01*
X214143198Y-112808296D01*
X214339855Y-112558942D01*
X214585223Y-112271900D01*
X214719923Y-112122925D01*
X216808157Y-112122925D01*
X216842786Y-112157239D01*
X216946501Y-112181301D01*
X217101960Y-112199128D01*
X217097083Y-112960021D01*
X217092205Y-113720914D01*
X217339370Y-113720914D01*
X217586534Y-113720914D01*
X217546348Y-112994303D01*
X217530812Y-112677732D01*
X217528144Y-112455036D01*
X217543031Y-112309715D01*
X217580159Y-112225272D01*
X217644216Y-112185208D01*
X217739887Y-112173025D01*
X217779847Y-112172306D01*
X217877175Y-112162879D01*
X217904357Y-112148277D01*
X217885983Y-112083404D01*
X217836651Y-111938753D01*
X217765047Y-111737798D01*
X217679859Y-111504013D01*
X217589773Y-111260873D01*
X217503474Y-111031852D01*
X217429650Y-110840424D01*
X217376987Y-110710063D01*
X217355460Y-110664929D01*
X217326330Y-110699422D01*
X217270175Y-110821596D01*
X217194201Y-111013882D01*
X217105614Y-111258712D01*
X217072947Y-111353611D01*
X216981958Y-111620667D01*
X216903458Y-111849805D01*
X216844413Y-112020786D01*
X216811789Y-112113371D01*
X216808157Y-112122925D01*
X214719923Y-112122925D01*
X214868000Y-111959155D01*
X215176882Y-111632691D01*
X215500569Y-111304493D01*
X215827757Y-110986546D01*
X216147144Y-110690834D01*
X216447428Y-110429343D01*
X216678527Y-110243454D01*
X216946479Y-110044964D01*
X217153715Y-109916628D01*
X217323207Y-109856177D01*
X217477927Y-109861341D01*
G37*
D12*
%TO.C,L1*%
X180500000Y-83300000D02*
X180500000Y-95900000D01*
X177500000Y-83300000D02*
X180500000Y-83300000D01*
X167900000Y-83300000D02*
X170900000Y-83300000D01*
X180500000Y-95900000D02*
X177500000Y-95900000D01*
X170900000Y-95900000D02*
X167900000Y-95900000D01*
X167900000Y-95900000D02*
X167900000Y-83300000D01*
%TO.C,U1*%
X127625000Y-83600000D02*
X127625000Y-84550000D01*
X127625000Y-94000000D02*
X127625000Y-93050000D01*
X128990000Y-83600000D02*
X127625000Y-83600000D01*
X128990000Y-94000000D02*
X127625000Y-94000000D01*
X124800000Y-84590000D02*
X124460000Y-84120000D01*
X125140000Y-84120000D01*
X124800000Y-84590000D01*
G36*
X124800000Y-84590000D02*
G01*
X124460000Y-84120000D01*
X125140000Y-84120000D01*
X124800000Y-84590000D01*
G37*
%TO.C,R2*%
X153525000Y-77670000D02*
X163275000Y-77670000D01*
X153525000Y-82720000D02*
X153525000Y-77670000D01*
X163275000Y-77670000D02*
X163275000Y-82720000D01*
X163275000Y-82720000D02*
X153525000Y-82720000D01*
%TO.C,R1*%
X146832776Y-96477500D02*
X147342224Y-96477500D01*
X146832776Y-97522500D02*
X147342224Y-97522500D01*
%TO.C,D1*%
X151315000Y-104065000D02*
X151315000Y-106335000D01*
X151315000Y-106335000D02*
X155200000Y-106335000D01*
X155200000Y-104065000D02*
X151315000Y-104065000D01*
%TO.C,C4*%
X177991233Y-73090000D02*
X178283767Y-73090000D01*
X177991233Y-74110000D02*
X178283767Y-74110000D01*
%TO.C,C3*%
X182300000Y-102690000D02*
X183300000Y-102690000D01*
X182800000Y-102190000D02*
X182800000Y-103190000D01*
X183540000Y-102004437D02*
X183540000Y-103690000D01*
X183540000Y-102004437D02*
X184604437Y-100940000D01*
X183540000Y-108395563D02*
X183540000Y-106710000D01*
X183540000Y-108395563D02*
X184604437Y-109460000D01*
X184604437Y-100940000D02*
X192060000Y-100940000D01*
X184604437Y-109460000D02*
X192060000Y-109460000D01*
X192060000Y-100940000D02*
X192060000Y-103690000D01*
X192060000Y-109460000D02*
X192060000Y-106710000D01*
%TO.C,C2*%
X85300000Y-99690000D02*
X86300000Y-99690000D01*
X85800000Y-99190000D02*
X85800000Y-100190000D01*
X86540000Y-99004437D02*
X86540000Y-100690000D01*
X86540000Y-99004437D02*
X87604437Y-97940000D01*
X86540000Y-105395563D02*
X86540000Y-103710000D01*
X86540000Y-105395563D02*
X87604437Y-106460000D01*
X87604437Y-97940000D02*
X95060000Y-97940000D01*
X87604437Y-106460000D02*
X95060000Y-106460000D01*
X95060000Y-97940000D02*
X95060000Y-100690000D01*
X95060000Y-106460000D02*
X95060000Y-103710000D01*
%TO.C,C1*%
X105053733Y-95090000D02*
X105346267Y-95090000D01*
X105053733Y-96110000D02*
X105346267Y-96110000D01*
D13*
%TO.C,REF\u002A\u002A*%
X70588614Y-72875877D02*
X70612327Y-72890647D01*
X70638978Y-72912227D01*
X70638978Y-73233773D01*
X70638893Y-73327830D01*
X70638529Y-73401932D01*
X70637724Y-73458704D01*
X70636313Y-73500768D01*
X70634133Y-73530748D01*
X70631021Y-73551267D01*
X70626814Y-73564949D01*
X70621348Y-73574416D01*
X70617472Y-73579082D01*
X70586034Y-73599575D01*
X70550233Y-73598739D01*
X70518873Y-73581264D01*
X70492222Y-73559684D01*
X70492222Y-72912227D01*
X70518873Y-72890647D01*
X70544594Y-72874949D01*
X70565600Y-72869067D01*
X70588614Y-72875877D01*
G36*
X70588614Y-72875877D02*
G01*
X70612327Y-72890647D01*
X70638978Y-72912227D01*
X70638978Y-73233773D01*
X70638893Y-73327830D01*
X70638529Y-73401932D01*
X70637724Y-73458704D01*
X70636313Y-73500768D01*
X70634133Y-73530748D01*
X70631021Y-73551267D01*
X70626814Y-73564949D01*
X70621348Y-73574416D01*
X70617472Y-73579082D01*
X70586034Y-73599575D01*
X70550233Y-73598739D01*
X70518873Y-73581264D01*
X70492222Y-73559684D01*
X70492222Y-72912227D01*
X70518873Y-72890647D01*
X70544594Y-72874949D01*
X70565600Y-72869067D01*
X70588614Y-72875877D01*
G37*
X63476178Y-72891645D02*
X63482758Y-72899218D01*
X63487921Y-72908987D01*
X63491836Y-72923571D01*
X63494676Y-72945585D01*
X63496613Y-72977648D01*
X63497817Y-73022375D01*
X63498461Y-73082385D01*
X63498716Y-73160294D01*
X63498755Y-73235956D01*
X63498686Y-73329802D01*
X63498362Y-73403689D01*
X63497614Y-73460232D01*
X63496268Y-73502049D01*
X63494154Y-73531757D01*
X63491100Y-73551973D01*
X63486934Y-73565314D01*
X63481484Y-73574398D01*
X63476178Y-73580267D01*
X63443174Y-73599947D01*
X63408009Y-73598181D01*
X63376545Y-73576717D01*
X63369316Y-73568337D01*
X63363666Y-73558614D01*
X63359401Y-73544861D01*
X63356327Y-73524389D01*
X63354248Y-73494512D01*
X63352970Y-73452541D01*
X63352299Y-73395789D01*
X63352041Y-73321567D01*
X63352000Y-73237537D01*
X63352000Y-72924485D01*
X63379709Y-72896776D01*
X63413863Y-72873463D01*
X63446994Y-72872623D01*
X63476178Y-72891645D01*
G36*
X63476178Y-72891645D02*
G01*
X63482758Y-72899218D01*
X63487921Y-72908987D01*
X63491836Y-72923571D01*
X63494676Y-72945585D01*
X63496613Y-72977648D01*
X63497817Y-73022375D01*
X63498461Y-73082385D01*
X63498716Y-73160294D01*
X63498755Y-73235956D01*
X63498686Y-73329802D01*
X63498362Y-73403689D01*
X63497614Y-73460232D01*
X63496268Y-73502049D01*
X63494154Y-73531757D01*
X63491100Y-73551973D01*
X63486934Y-73565314D01*
X63481484Y-73574398D01*
X63476178Y-73580267D01*
X63443174Y-73599947D01*
X63408009Y-73598181D01*
X63376545Y-73576717D01*
X63369316Y-73568337D01*
X63363666Y-73558614D01*
X63359401Y-73544861D01*
X63356327Y-73524389D01*
X63354248Y-73494512D01*
X63352970Y-73452541D01*
X63352299Y-73395789D01*
X63352041Y-73321567D01*
X63352000Y-73237537D01*
X63352000Y-72924485D01*
X63379709Y-72896776D01*
X63413863Y-72873463D01*
X63446994Y-72872623D01*
X63476178Y-72891645D01*
G37*
X64126957Y-67626571D02*
X64223232Y-67650809D01*
X64309816Y-67693641D01*
X64384627Y-67753419D01*
X64445582Y-67828494D01*
X64490601Y-67917220D01*
X64516864Y-68013530D01*
X64522714Y-68110795D01*
X64507860Y-68204654D01*
X64474160Y-68292511D01*
X64423472Y-68371770D01*
X64357655Y-68439836D01*
X64278566Y-68494112D01*
X64188066Y-68532002D01*
X64136800Y-68544426D01*
X64092302Y-68551947D01*
X64058001Y-68554919D01*
X64025040Y-68553094D01*
X63984566Y-68546225D01*
X63951469Y-68539250D01*
X63858053Y-68507741D01*
X63774381Y-68456617D01*
X63702335Y-68387429D01*
X63643800Y-68301728D01*
X63629852Y-68274489D01*
X63613414Y-68238122D01*
X63603106Y-68207582D01*
X63597540Y-68175450D01*
X63595331Y-68134307D01*
X63595052Y-68088222D01*
X63599139Y-68003865D01*
X63612554Y-67934586D01*
X63637744Y-67873961D01*
X63677154Y-67815567D01*
X63715702Y-67771302D01*
X63787594Y-67705484D01*
X63862687Y-67660053D01*
X63945438Y-67632850D01*
X64023072Y-67622576D01*
X64126957Y-67626571D01*
G36*
X64126957Y-67626571D02*
G01*
X64223232Y-67650809D01*
X64309816Y-67693641D01*
X64384627Y-67753419D01*
X64445582Y-67828494D01*
X64490601Y-67917220D01*
X64516864Y-68013530D01*
X64522714Y-68110795D01*
X64507860Y-68204654D01*
X64474160Y-68292511D01*
X64423472Y-68371770D01*
X64357655Y-68439836D01*
X64278566Y-68494112D01*
X64188066Y-68532002D01*
X64136800Y-68544426D01*
X64092302Y-68551947D01*
X64058001Y-68554919D01*
X64025040Y-68553094D01*
X63984566Y-68546225D01*
X63951469Y-68539250D01*
X63858053Y-68507741D01*
X63774381Y-68456617D01*
X63702335Y-68387429D01*
X63643800Y-68301728D01*
X63629852Y-68274489D01*
X63613414Y-68238122D01*
X63603106Y-68207582D01*
X63597540Y-68175450D01*
X63595331Y-68134307D01*
X63595052Y-68088222D01*
X63599139Y-68003865D01*
X63612554Y-67934586D01*
X63637744Y-67873961D01*
X63677154Y-67815567D01*
X63715702Y-67771302D01*
X63787594Y-67705484D01*
X63862687Y-67660053D01*
X63945438Y-67632850D01*
X64023072Y-67622576D01*
X64126957Y-67626571D01*
G37*
X71363065Y-72869163D02*
X71441772Y-72869542D01*
X71502863Y-72870333D01*
X71548817Y-72871670D01*
X71582114Y-72873683D01*
X71605236Y-72876506D01*
X71620662Y-72880269D01*
X71630871Y-72885105D01*
X71635813Y-72888822D01*
X71661457Y-72921358D01*
X71664559Y-72955138D01*
X71648711Y-72985826D01*
X71638348Y-72998089D01*
X71627196Y-73006450D01*
X71611035Y-73011657D01*
X71585642Y-73014457D01*
X71546798Y-73015596D01*
X71490280Y-73015821D01*
X71479180Y-73015822D01*
X71333244Y-73015822D01*
X71333244Y-73286756D01*
X71333148Y-73372154D01*
X71332711Y-73437864D01*
X71331712Y-73486774D01*
X71329928Y-73521773D01*
X71327137Y-73545749D01*
X71323117Y-73561593D01*
X71317645Y-73572191D01*
X71310666Y-73580267D01*
X71277734Y-73600112D01*
X71243354Y-73598548D01*
X71212176Y-73575906D01*
X71209886Y-73573100D01*
X71202429Y-73562492D01*
X71196747Y-73550081D01*
X71192601Y-73532850D01*
X71189750Y-73507784D01*
X71187954Y-73471867D01*
X71186972Y-73422083D01*
X71186564Y-73355417D01*
X71186489Y-73279589D01*
X71186489Y-73015822D01*
X71047127Y-73015822D01*
X70987322Y-73015418D01*
X70945918Y-73013840D01*
X70918748Y-73010547D01*
X70901646Y-73004992D01*
X70890443Y-72996631D01*
X70889083Y-72995178D01*
X70872725Y-72961939D01*
X70874172Y-72924362D01*
X70892978Y-72891645D01*
X70900250Y-72885298D01*
X70909627Y-72880266D01*
X70923609Y-72876396D01*
X70944696Y-72873537D01*
X70975389Y-72871535D01*
X71018189Y-72870239D01*
X71075595Y-72869498D01*
X71150110Y-72869158D01*
X71244233Y-72869068D01*
X71264260Y-72869067D01*
X71363065Y-72869163D01*
G36*
X71363065Y-72869163D02*
G01*
X71441772Y-72869542D01*
X71502863Y-72870333D01*
X71548817Y-72871670D01*
X71582114Y-72873683D01*
X71605236Y-72876506D01*
X71620662Y-72880269D01*
X71630871Y-72885105D01*
X71635813Y-72888822D01*
X71661457Y-72921358D01*
X71664559Y-72955138D01*
X71648711Y-72985826D01*
X71638348Y-72998089D01*
X71627196Y-73006450D01*
X71611035Y-73011657D01*
X71585642Y-73014457D01*
X71546798Y-73015596D01*
X71490280Y-73015821D01*
X71479180Y-73015822D01*
X71333244Y-73015822D01*
X71333244Y-73286756D01*
X71333148Y-73372154D01*
X71332711Y-73437864D01*
X71331712Y-73486774D01*
X71329928Y-73521773D01*
X71327137Y-73545749D01*
X71323117Y-73561593D01*
X71317645Y-73572191D01*
X71310666Y-73580267D01*
X71277734Y-73600112D01*
X71243354Y-73598548D01*
X71212176Y-73575906D01*
X71209886Y-73573100D01*
X71202429Y-73562492D01*
X71196747Y-73550081D01*
X71192601Y-73532850D01*
X71189750Y-73507784D01*
X71187954Y-73471867D01*
X71186972Y-73422083D01*
X71186564Y-73355417D01*
X71186489Y-73279589D01*
X71186489Y-73015822D01*
X71047127Y-73015822D01*
X70987322Y-73015418D01*
X70945918Y-73013840D01*
X70918748Y-73010547D01*
X70901646Y-73004992D01*
X70890443Y-72996631D01*
X70889083Y-72995178D01*
X70872725Y-72961939D01*
X70874172Y-72924362D01*
X70892978Y-72891645D01*
X70900250Y-72885298D01*
X70909627Y-72880266D01*
X70923609Y-72876396D01*
X70944696Y-72873537D01*
X70975389Y-72871535D01*
X71018189Y-72870239D01*
X71075595Y-72869498D01*
X71150110Y-72869158D01*
X71244233Y-72869068D01*
X71264260Y-72869067D01*
X71363065Y-72869163D01*
G37*
X72628823Y-72874533D02*
X72660202Y-72896776D01*
X72687911Y-72924485D01*
X72687911Y-73233920D01*
X72687838Y-73325799D01*
X72687495Y-73397840D01*
X72686692Y-73452780D01*
X72685241Y-73493360D01*
X72682952Y-73522317D01*
X72679636Y-73542391D01*
X72675105Y-73556321D01*
X72669169Y-73566845D01*
X72664514Y-73573100D01*
X72633783Y-73597673D01*
X72598496Y-73600341D01*
X72566245Y-73585271D01*
X72555588Y-73576374D01*
X72548464Y-73564557D01*
X72544167Y-73545526D01*
X72541991Y-73514992D01*
X72541228Y-73468662D01*
X72541155Y-73432871D01*
X72541155Y-73298045D01*
X72044444Y-73298045D01*
X72044444Y-73420700D01*
X72043931Y-73476787D01*
X72041876Y-73515333D01*
X72037508Y-73541361D01*
X72030056Y-73559897D01*
X72021047Y-73573100D01*
X71990144Y-73597604D01*
X71955196Y-73600506D01*
X71921738Y-73583089D01*
X71912604Y-73573959D01*
X71906152Y-73561855D01*
X71901897Y-73543001D01*
X71899352Y-73513620D01*
X71898029Y-73469937D01*
X71897443Y-73408175D01*
X71897375Y-73394000D01*
X71896891Y-73277631D01*
X71896641Y-73181727D01*
X71896723Y-73104177D01*
X71897231Y-73042869D01*
X71898262Y-72995690D01*
X71899913Y-72960530D01*
X71902279Y-72935276D01*
X71905457Y-72917817D01*
X71909544Y-72906041D01*
X71914634Y-72897835D01*
X71920266Y-72891645D01*
X71952128Y-72871844D01*
X71985357Y-72874533D01*
X72016735Y-72896776D01*
X72029433Y-72911126D01*
X72037526Y-72926978D01*
X72042042Y-72949554D01*
X72044006Y-72984078D01*
X72044444Y-73035776D01*
X72044444Y-73151289D01*
X72541155Y-73151289D01*
X72541155Y-73032756D01*
X72541662Y-72978148D01*
X72543698Y-72941275D01*
X72548035Y-72917307D01*
X72555447Y-72901415D01*
X72563733Y-72891645D01*
X72595594Y-72871844D01*
X72628823Y-72874533D01*
G36*
X72628823Y-72874533D02*
G01*
X72660202Y-72896776D01*
X72687911Y-72924485D01*
X72687911Y-73233920D01*
X72687838Y-73325799D01*
X72687495Y-73397840D01*
X72686692Y-73452780D01*
X72685241Y-73493360D01*
X72682952Y-73522317D01*
X72679636Y-73542391D01*
X72675105Y-73556321D01*
X72669169Y-73566845D01*
X72664514Y-73573100D01*
X72633783Y-73597673D01*
X72598496Y-73600341D01*
X72566245Y-73585271D01*
X72555588Y-73576374D01*
X72548464Y-73564557D01*
X72544167Y-73545526D01*
X72541991Y-73514992D01*
X72541228Y-73468662D01*
X72541155Y-73432871D01*
X72541155Y-73298045D01*
X72044444Y-73298045D01*
X72044444Y-73420700D01*
X72043931Y-73476787D01*
X72041876Y-73515333D01*
X72037508Y-73541361D01*
X72030056Y-73559897D01*
X72021047Y-73573100D01*
X71990144Y-73597604D01*
X71955196Y-73600506D01*
X71921738Y-73583089D01*
X71912604Y-73573959D01*
X71906152Y-73561855D01*
X71901897Y-73543001D01*
X71899352Y-73513620D01*
X71898029Y-73469937D01*
X71897443Y-73408175D01*
X71897375Y-73394000D01*
X71896891Y-73277631D01*
X71896641Y-73181727D01*
X71896723Y-73104177D01*
X71897231Y-73042869D01*
X71898262Y-72995690D01*
X71899913Y-72960530D01*
X71902279Y-72935276D01*
X71905457Y-72917817D01*
X71909544Y-72906041D01*
X71914634Y-72897835D01*
X71920266Y-72891645D01*
X71952128Y-72871844D01*
X71985357Y-72874533D01*
X72016735Y-72896776D01*
X72029433Y-72911126D01*
X72037526Y-72926978D01*
X72042042Y-72949554D01*
X72044006Y-72984078D01*
X72044444Y-73035776D01*
X72044444Y-73151289D01*
X72541155Y-73151289D01*
X72541155Y-73032756D01*
X72541662Y-72978148D01*
X72543698Y-72941275D01*
X72548035Y-72917307D01*
X72555447Y-72901415D01*
X72563733Y-72891645D01*
X72595594Y-72871844D01*
X72628823Y-72874533D01*
G37*
X67418309Y-72869275D02*
X67547288Y-72873636D01*
X67656991Y-72886861D01*
X67749226Y-72909741D01*
X67825802Y-72943070D01*
X67888527Y-72987638D01*
X67939212Y-73044236D01*
X67979663Y-73113658D01*
X67980459Y-73115351D01*
X68004601Y-73177483D01*
X68013203Y-73232509D01*
X68006231Y-73287887D01*
X67983654Y-73351073D01*
X67979372Y-73360689D01*
X67950172Y-73416966D01*
X67917356Y-73460451D01*
X67875002Y-73497417D01*
X67817190Y-73534135D01*
X67813831Y-73536052D01*
X67763504Y-73560227D01*
X67706621Y-73578282D01*
X67639527Y-73590839D01*
X67558565Y-73598522D01*
X67460082Y-73601953D01*
X67425286Y-73602251D01*
X67259594Y-73602845D01*
X67236197Y-73573100D01*
X67229257Y-73563319D01*
X67223842Y-73551897D01*
X67219765Y-73536095D01*
X67216837Y-73513175D01*
X67214867Y-73480396D01*
X67214225Y-73456089D01*
X67213668Y-73435021D01*
X67213050Y-73374311D01*
X67212825Y-73295526D01*
X67212800Y-73233920D01*
X67212800Y-73015822D01*
X67370844Y-73015822D01*
X67370844Y-73456089D01*
X67464726Y-73456089D01*
X67519664Y-73454483D01*
X67576060Y-73450255D01*
X67622345Y-73444292D01*
X67625139Y-73443790D01*
X67707348Y-73421736D01*
X67771114Y-73388600D01*
X67818452Y-73342847D01*
X67851382Y-73282939D01*
X67857108Y-73267061D01*
X67862721Y-73242333D01*
X67860291Y-73217902D01*
X67848467Y-73185400D01*
X67841340Y-73169434D01*
X67818000Y-73127006D01*
X67789880Y-73097240D01*
X67758940Y-73076511D01*
X67696966Y-73049537D01*
X67617651Y-73029998D01*
X67525253Y-73018746D01*
X67458333Y-73016270D01*
X67370844Y-73015822D01*
X67212800Y-73015822D01*
X67212800Y-72924485D01*
X67240509Y-72896776D01*
X67252806Y-72885544D01*
X67266103Y-72877853D01*
X67284672Y-72873040D01*
X67312786Y-72870446D01*
X67354717Y-72869410D01*
X67414737Y-72869270D01*
X67418309Y-72869275D01*
G36*
X67418309Y-72869275D02*
G01*
X67547288Y-72873636D01*
X67656991Y-72886861D01*
X67749226Y-72909741D01*
X67825802Y-72943070D01*
X67888527Y-72987638D01*
X67939212Y-73044236D01*
X67979663Y-73113658D01*
X67980459Y-73115351D01*
X68004601Y-73177483D01*
X68013203Y-73232509D01*
X68006231Y-73287887D01*
X67983654Y-73351073D01*
X67979372Y-73360689D01*
X67950172Y-73416966D01*
X67917356Y-73460451D01*
X67875002Y-73497417D01*
X67817190Y-73534135D01*
X67813831Y-73536052D01*
X67763504Y-73560227D01*
X67706621Y-73578282D01*
X67639527Y-73590839D01*
X67558565Y-73598522D01*
X67460082Y-73601953D01*
X67425286Y-73602251D01*
X67259594Y-73602845D01*
X67236197Y-73573100D01*
X67229257Y-73563319D01*
X67223842Y-73551897D01*
X67219765Y-73536095D01*
X67216837Y-73513175D01*
X67214867Y-73480396D01*
X67214225Y-73456089D01*
X67213668Y-73435021D01*
X67213050Y-73374311D01*
X67212825Y-73295526D01*
X67212800Y-73233920D01*
X67212800Y-73015822D01*
X67370844Y-73015822D01*
X67370844Y-73456089D01*
X67464726Y-73456089D01*
X67519664Y-73454483D01*
X67576060Y-73450255D01*
X67622345Y-73444292D01*
X67625139Y-73443790D01*
X67707348Y-73421736D01*
X67771114Y-73388600D01*
X67818452Y-73342847D01*
X67851382Y-73282939D01*
X67857108Y-73267061D01*
X67862721Y-73242333D01*
X67860291Y-73217902D01*
X67848467Y-73185400D01*
X67841340Y-73169434D01*
X67818000Y-73127006D01*
X67789880Y-73097240D01*
X67758940Y-73076511D01*
X67696966Y-73049537D01*
X67617651Y-73029998D01*
X67525253Y-73018746D01*
X67458333Y-73016270D01*
X67370844Y-73015822D01*
X67212800Y-73015822D01*
X67212800Y-72924485D01*
X67240509Y-72896776D01*
X67252806Y-72885544D01*
X67266103Y-72877853D01*
X67284672Y-72873040D01*
X67312786Y-72870446D01*
X67354717Y-72869410D01*
X67414737Y-72869270D01*
X67418309Y-72869275D01*
G37*
X60278629Y-72869066D02*
X60318111Y-72869467D01*
X60433800Y-72872259D01*
X60530689Y-72880550D01*
X60612081Y-72895232D01*
X60681277Y-72917193D01*
X60741580Y-72947322D01*
X60796292Y-72986510D01*
X60815833Y-73003532D01*
X60848250Y-73043363D01*
X60877480Y-73097413D01*
X60900009Y-73157323D01*
X60912321Y-73214739D01*
X60913600Y-73235956D01*
X60905583Y-73294769D01*
X60884101Y-73359013D01*
X60853001Y-73419821D01*
X60816134Y-73468330D01*
X60810146Y-73474182D01*
X60759421Y-73515321D01*
X60703875Y-73547435D01*
X60640304Y-73571365D01*
X60565506Y-73587953D01*
X60476278Y-73598041D01*
X60369418Y-73602469D01*
X60320472Y-73602845D01*
X60258238Y-73602545D01*
X60214472Y-73601292D01*
X60185069Y-73598554D01*
X60165921Y-73593801D01*
X60152923Y-73586501D01*
X60145955Y-73580267D01*
X60139374Y-73572694D01*
X60134212Y-73562924D01*
X60130297Y-73548340D01*
X60127457Y-73526326D01*
X60125520Y-73494264D01*
X60124492Y-73456089D01*
X60270133Y-73456089D01*
X60363266Y-73456004D01*
X60419307Y-73454396D01*
X60478001Y-73450256D01*
X60526972Y-73444464D01*
X60528462Y-73444226D01*
X60607608Y-73425090D01*
X60668998Y-73395287D01*
X60715695Y-73352878D01*
X60745365Y-73306961D01*
X60763647Y-73256026D01*
X60762229Y-73208200D01*
X60741012Y-73156933D01*
X60699511Y-73103899D01*
X60642002Y-73064600D01*
X60567250Y-73038331D01*
X60517292Y-73029035D01*
X60460584Y-73022507D01*
X60400481Y-73017782D01*
X60349361Y-73015817D01*
X60346333Y-73015808D01*
X60270133Y-73015822D01*
X60270133Y-73456089D01*
X60124492Y-73456089D01*
X60124316Y-73449536D01*
X60123672Y-73389526D01*
X60123417Y-73311617D01*
X60123378Y-73235956D01*
X60123130Y-73135041D01*
X60123183Y-73054427D01*
X60124143Y-73015822D01*
X60124740Y-72991851D01*
X60129002Y-72945055D01*
X60137170Y-72911778D01*
X60150444Y-72889759D01*
X60170026Y-72876739D01*
X60197117Y-72870457D01*
X60232918Y-72868653D01*
X60278629Y-72869066D01*
G36*
X60278629Y-72869066D02*
G01*
X60318111Y-72869467D01*
X60433800Y-72872259D01*
X60530689Y-72880550D01*
X60612081Y-72895232D01*
X60681277Y-72917193D01*
X60741580Y-72947322D01*
X60796292Y-72986510D01*
X60815833Y-73003532D01*
X60848250Y-73043363D01*
X60877480Y-73097413D01*
X60900009Y-73157323D01*
X60912321Y-73214739D01*
X60913600Y-73235956D01*
X60905583Y-73294769D01*
X60884101Y-73359013D01*
X60853001Y-73419821D01*
X60816134Y-73468330D01*
X60810146Y-73474182D01*
X60759421Y-73515321D01*
X60703875Y-73547435D01*
X60640304Y-73571365D01*
X60565506Y-73587953D01*
X60476278Y-73598041D01*
X60369418Y-73602469D01*
X60320472Y-73602845D01*
X60258238Y-73602545D01*
X60214472Y-73601292D01*
X60185069Y-73598554D01*
X60165921Y-73593801D01*
X60152923Y-73586501D01*
X60145955Y-73580267D01*
X60139374Y-73572694D01*
X60134212Y-73562924D01*
X60130297Y-73548340D01*
X60127457Y-73526326D01*
X60125520Y-73494264D01*
X60124492Y-73456089D01*
X60270133Y-73456089D01*
X60363266Y-73456004D01*
X60419307Y-73454396D01*
X60478001Y-73450256D01*
X60526972Y-73444464D01*
X60528462Y-73444226D01*
X60607608Y-73425090D01*
X60668998Y-73395287D01*
X60715695Y-73352878D01*
X60745365Y-73306961D01*
X60763647Y-73256026D01*
X60762229Y-73208200D01*
X60741012Y-73156933D01*
X60699511Y-73103899D01*
X60642002Y-73064600D01*
X60567250Y-73038331D01*
X60517292Y-73029035D01*
X60460584Y-73022507D01*
X60400481Y-73017782D01*
X60349361Y-73015817D01*
X60346333Y-73015808D01*
X60270133Y-73015822D01*
X60270133Y-73456089D01*
X60124492Y-73456089D01*
X60124316Y-73449536D01*
X60123672Y-73389526D01*
X60123417Y-73311617D01*
X60123378Y-73235956D01*
X60123130Y-73135041D01*
X60123183Y-73054427D01*
X60124143Y-73015822D01*
X60124740Y-72991851D01*
X60129002Y-72945055D01*
X60137170Y-72911778D01*
X60150444Y-72889759D01*
X60170026Y-72876739D01*
X60197117Y-72870457D01*
X60232918Y-72868653D01*
X60278629Y-72869066D01*
G37*
X65099886Y-72873448D02*
X65123452Y-72887273D01*
X65154265Y-72909881D01*
X65193922Y-72942338D01*
X65244020Y-72985708D01*
X65306157Y-73041058D01*
X65381928Y-73109451D01*
X65468666Y-73188084D01*
X65649289Y-73351878D01*
X65654933Y-73132029D01*
X65656971Y-73056351D01*
X65658937Y-72999994D01*
X65661266Y-72959706D01*
X65664394Y-72932235D01*
X65668755Y-72914329D01*
X65674784Y-72902737D01*
X65682916Y-72894208D01*
X65687228Y-72890623D01*
X65721759Y-72871670D01*
X65754617Y-72874441D01*
X65780682Y-72890633D01*
X65807333Y-72912199D01*
X65810648Y-73227151D01*
X65811565Y-73319779D01*
X65812032Y-73392544D01*
X65811887Y-73448161D01*
X65810968Y-73489342D01*
X65809113Y-73518803D01*
X65806161Y-73539255D01*
X65801950Y-73553413D01*
X65796318Y-73563991D01*
X65790073Y-73572474D01*
X65776561Y-73588207D01*
X65763117Y-73598636D01*
X65747876Y-73602639D01*
X65728974Y-73599094D01*
X65704545Y-73586879D01*
X65672727Y-73564871D01*
X65631652Y-73531949D01*
X65579458Y-73486991D01*
X65514278Y-73428875D01*
X65440444Y-73362099D01*
X65175155Y-73121458D01*
X65169511Y-73340589D01*
X65167469Y-73416128D01*
X65165498Y-73472354D01*
X65163161Y-73512524D01*
X65160019Y-73539896D01*
X65155636Y-73557728D01*
X65149576Y-73569279D01*
X65141400Y-73577807D01*
X65137216Y-73581282D01*
X65100235Y-73600372D01*
X65065292Y-73597493D01*
X65034864Y-73573100D01*
X65027903Y-73563286D01*
X65022477Y-73551826D01*
X65018397Y-73535968D01*
X65015471Y-73512963D01*
X65013508Y-73480062D01*
X65012317Y-73434516D01*
X65011708Y-73373573D01*
X65011489Y-73294486D01*
X65011466Y-73235956D01*
X65011540Y-73144407D01*
X65011887Y-73072687D01*
X65012699Y-73018045D01*
X65014167Y-72977732D01*
X65016481Y-72948998D01*
X65019833Y-72929093D01*
X65024412Y-72915268D01*
X65030411Y-72904772D01*
X65034864Y-72898811D01*
X65046150Y-72884691D01*
X65056699Y-72874029D01*
X65068107Y-72867892D01*
X65081970Y-72867343D01*
X65099886Y-72873448D01*
G36*
X65099886Y-72873448D02*
G01*
X65123452Y-72887273D01*
X65154265Y-72909881D01*
X65193922Y-72942338D01*
X65244020Y-72985708D01*
X65306157Y-73041058D01*
X65381928Y-73109451D01*
X65468666Y-73188084D01*
X65649289Y-73351878D01*
X65654933Y-73132029D01*
X65656971Y-73056351D01*
X65658937Y-72999994D01*
X65661266Y-72959706D01*
X65664394Y-72932235D01*
X65668755Y-72914329D01*
X65674784Y-72902737D01*
X65682916Y-72894208D01*
X65687228Y-72890623D01*
X65721759Y-72871670D01*
X65754617Y-72874441D01*
X65780682Y-72890633D01*
X65807333Y-72912199D01*
X65810648Y-73227151D01*
X65811565Y-73319779D01*
X65812032Y-73392544D01*
X65811887Y-73448161D01*
X65810968Y-73489342D01*
X65809113Y-73518803D01*
X65806161Y-73539255D01*
X65801950Y-73553413D01*
X65796318Y-73563991D01*
X65790073Y-73572474D01*
X65776561Y-73588207D01*
X65763117Y-73598636D01*
X65747876Y-73602639D01*
X65728974Y-73599094D01*
X65704545Y-73586879D01*
X65672727Y-73564871D01*
X65631652Y-73531949D01*
X65579458Y-73486991D01*
X65514278Y-73428875D01*
X65440444Y-73362099D01*
X65175155Y-73121458D01*
X65169511Y-73340589D01*
X65167469Y-73416128D01*
X65165498Y-73472354D01*
X65163161Y-73512524D01*
X65160019Y-73539896D01*
X65155636Y-73557728D01*
X65149576Y-73569279D01*
X65141400Y-73577807D01*
X65137216Y-73581282D01*
X65100235Y-73600372D01*
X65065292Y-73597493D01*
X65034864Y-73573100D01*
X65027903Y-73563286D01*
X65022477Y-73551826D01*
X65018397Y-73535968D01*
X65015471Y-73512963D01*
X65013508Y-73480062D01*
X65012317Y-73434516D01*
X65011708Y-73373573D01*
X65011489Y-73294486D01*
X65011466Y-73235956D01*
X65011540Y-73144407D01*
X65011887Y-73072687D01*
X65012699Y-73018045D01*
X65014167Y-72977732D01*
X65016481Y-72948998D01*
X65019833Y-72929093D01*
X65024412Y-72915268D01*
X65030411Y-72904772D01*
X65034864Y-72898811D01*
X65046150Y-72884691D01*
X65056699Y-72874029D01*
X65068107Y-72867892D01*
X65081970Y-72867343D01*
X65099886Y-72873448D01*
G37*
X64449919Y-72874599D02*
X64518435Y-72886095D01*
X64571057Y-72903967D01*
X64605292Y-72927499D01*
X64614621Y-72940924D01*
X64624107Y-72972148D01*
X64617723Y-73000395D01*
X64597570Y-73027182D01*
X64566255Y-73039713D01*
X64520817Y-73038696D01*
X64485674Y-73031906D01*
X64407581Y-73018971D01*
X64327774Y-73017742D01*
X64238445Y-73028241D01*
X64213771Y-73032690D01*
X64130709Y-73056108D01*
X64065727Y-73090945D01*
X64019539Y-73136604D01*
X63992855Y-73192494D01*
X63987337Y-73221388D01*
X63990949Y-73280012D01*
X64014271Y-73331879D01*
X64055176Y-73375978D01*
X64111541Y-73411299D01*
X64181240Y-73436829D01*
X64262148Y-73451559D01*
X64352140Y-73454478D01*
X64449090Y-73444575D01*
X64454564Y-73443641D01*
X64493125Y-73436459D01*
X64514506Y-73429521D01*
X64523773Y-73419227D01*
X64525994Y-73401976D01*
X64526044Y-73392841D01*
X64526044Y-73354489D01*
X64457569Y-73354489D01*
X64397100Y-73350347D01*
X64355835Y-73337147D01*
X64331825Y-73313730D01*
X64323123Y-73278936D01*
X64323017Y-73274394D01*
X64328108Y-73244654D01*
X64345567Y-73223419D01*
X64378061Y-73209366D01*
X64428257Y-73201173D01*
X64476877Y-73198161D01*
X64547544Y-73196433D01*
X64598802Y-73199070D01*
X64633761Y-73208800D01*
X64655530Y-73228353D01*
X64667220Y-73260456D01*
X64671940Y-73307838D01*
X64672800Y-73370071D01*
X64671391Y-73439535D01*
X64667152Y-73486786D01*
X64660064Y-73512012D01*
X64658689Y-73513988D01*
X64619772Y-73545508D01*
X64562714Y-73570470D01*
X64491131Y-73588340D01*
X64408642Y-73598586D01*
X64318861Y-73600673D01*
X64225408Y-73594068D01*
X64170444Y-73585956D01*
X64084234Y-73561554D01*
X64004108Y-73521662D01*
X63937023Y-73469887D01*
X63926827Y-73459539D01*
X63893698Y-73416035D01*
X63863806Y-73362118D01*
X63840643Y-73305592D01*
X63827702Y-73254259D01*
X63826142Y-73234544D01*
X63832782Y-73193419D01*
X63850432Y-73142252D01*
X63875703Y-73088394D01*
X63905211Y-73039195D01*
X63931281Y-73006334D01*
X63992235Y-72957452D01*
X64071031Y-72918545D01*
X64164843Y-72890494D01*
X64270850Y-72874179D01*
X64368000Y-72870192D01*
X64449919Y-72874599D01*
G36*
X64449919Y-72874599D02*
G01*
X64518435Y-72886095D01*
X64571057Y-72903967D01*
X64605292Y-72927499D01*
X64614621Y-72940924D01*
X64624107Y-72972148D01*
X64617723Y-73000395D01*
X64597570Y-73027182D01*
X64566255Y-73039713D01*
X64520817Y-73038696D01*
X64485674Y-73031906D01*
X64407581Y-73018971D01*
X64327774Y-73017742D01*
X64238445Y-73028241D01*
X64213771Y-73032690D01*
X64130709Y-73056108D01*
X64065727Y-73090945D01*
X64019539Y-73136604D01*
X63992855Y-73192494D01*
X63987337Y-73221388D01*
X63990949Y-73280012D01*
X64014271Y-73331879D01*
X64055176Y-73375978D01*
X64111541Y-73411299D01*
X64181240Y-73436829D01*
X64262148Y-73451559D01*
X64352140Y-73454478D01*
X64449090Y-73444575D01*
X64454564Y-73443641D01*
X64493125Y-73436459D01*
X64514506Y-73429521D01*
X64523773Y-73419227D01*
X64525994Y-73401976D01*
X64526044Y-73392841D01*
X64526044Y-73354489D01*
X64457569Y-73354489D01*
X64397100Y-73350347D01*
X64355835Y-73337147D01*
X64331825Y-73313730D01*
X64323123Y-73278936D01*
X64323017Y-73274394D01*
X64328108Y-73244654D01*
X64345567Y-73223419D01*
X64378061Y-73209366D01*
X64428257Y-73201173D01*
X64476877Y-73198161D01*
X64547544Y-73196433D01*
X64598802Y-73199070D01*
X64633761Y-73208800D01*
X64655530Y-73228353D01*
X64667220Y-73260456D01*
X64671940Y-73307838D01*
X64672800Y-73370071D01*
X64671391Y-73439535D01*
X64667152Y-73486786D01*
X64660064Y-73512012D01*
X64658689Y-73513988D01*
X64619772Y-73545508D01*
X64562714Y-73570470D01*
X64491131Y-73588340D01*
X64408642Y-73598586D01*
X64318861Y-73600673D01*
X64225408Y-73594068D01*
X64170444Y-73585956D01*
X64084234Y-73561554D01*
X64004108Y-73521662D01*
X63937023Y-73469887D01*
X63926827Y-73459539D01*
X63893698Y-73416035D01*
X63863806Y-73362118D01*
X63840643Y-73305592D01*
X63827702Y-73254259D01*
X63826142Y-73234544D01*
X63832782Y-73193419D01*
X63850432Y-73142252D01*
X63875703Y-73088394D01*
X63905211Y-73039195D01*
X63931281Y-73006334D01*
X63992235Y-72957452D01*
X64071031Y-72918545D01*
X64164843Y-72890494D01*
X64270850Y-72874179D01*
X64368000Y-72870192D01*
X64449919Y-72874599D01*
G37*
X66630343Y-72869260D02*
X66706701Y-72870174D01*
X66765217Y-72872311D01*
X66808255Y-72876175D01*
X66838183Y-72882267D01*
X66857368Y-72891090D01*
X66868176Y-72903146D01*
X66872973Y-72918939D01*
X66874127Y-72938970D01*
X66874133Y-72941335D01*
X66873131Y-72963992D01*
X66868396Y-72981503D01*
X66857333Y-72994574D01*
X66837348Y-73003913D01*
X66805846Y-73010227D01*
X66760232Y-73014222D01*
X66697913Y-73016606D01*
X66616293Y-73018086D01*
X66591277Y-73018414D01*
X66349200Y-73021467D01*
X66345814Y-73086378D01*
X66342429Y-73151289D01*
X66510576Y-73151289D01*
X66576266Y-73151531D01*
X66623172Y-73152556D01*
X66655083Y-73154811D01*
X66675791Y-73158742D01*
X66689084Y-73164798D01*
X66698755Y-73173424D01*
X66698817Y-73173493D01*
X66716356Y-73207112D01*
X66715722Y-73243448D01*
X66697314Y-73274423D01*
X66693671Y-73277607D01*
X66680741Y-73285812D01*
X66663024Y-73291521D01*
X66636570Y-73295162D01*
X66597432Y-73297167D01*
X66541662Y-73297964D01*
X66505994Y-73298045D01*
X66343555Y-73298045D01*
X66343555Y-73456089D01*
X66590161Y-73456089D01*
X66671580Y-73456231D01*
X66733410Y-73456814D01*
X66778637Y-73458068D01*
X66810248Y-73460227D01*
X66831231Y-73463523D01*
X66844573Y-73468189D01*
X66853261Y-73474457D01*
X66855450Y-73476733D01*
X66871614Y-73508280D01*
X66872797Y-73544168D01*
X66859536Y-73575285D01*
X66849043Y-73585271D01*
X66838129Y-73590769D01*
X66821217Y-73595022D01*
X66795633Y-73598180D01*
X66758701Y-73600392D01*
X66707746Y-73601806D01*
X66640094Y-73602572D01*
X66553069Y-73602838D01*
X66533394Y-73602845D01*
X66444911Y-73602787D01*
X66376227Y-73602467D01*
X66324564Y-73601667D01*
X66287145Y-73600167D01*
X66261190Y-73597749D01*
X66243922Y-73594194D01*
X66232562Y-73589282D01*
X66224332Y-73582795D01*
X66219817Y-73578138D01*
X66213021Y-73569889D01*
X66207712Y-73559669D01*
X66203706Y-73544800D01*
X66200821Y-73522602D01*
X66198874Y-73490393D01*
X66197681Y-73445496D01*
X66197061Y-73385228D01*
X66196829Y-73306911D01*
X66196800Y-73240994D01*
X66196871Y-73148628D01*
X66197208Y-73076117D01*
X66197998Y-73020737D01*
X66199426Y-72979765D01*
X66201679Y-72950478D01*
X66204943Y-72930153D01*
X66209404Y-72916066D01*
X66215248Y-72905495D01*
X66220197Y-72898811D01*
X66243594Y-72869067D01*
X66533774Y-72869067D01*
X66630343Y-72869260D01*
G36*
X66630343Y-72869260D02*
G01*
X66706701Y-72870174D01*
X66765217Y-72872311D01*
X66808255Y-72876175D01*
X66838183Y-72882267D01*
X66857368Y-72891090D01*
X66868176Y-72903146D01*
X66872973Y-72918939D01*
X66874127Y-72938970D01*
X66874133Y-72941335D01*
X66873131Y-72963992D01*
X66868396Y-72981503D01*
X66857333Y-72994574D01*
X66837348Y-73003913D01*
X66805846Y-73010227D01*
X66760232Y-73014222D01*
X66697913Y-73016606D01*
X66616293Y-73018086D01*
X66591277Y-73018414D01*
X66349200Y-73021467D01*
X66345814Y-73086378D01*
X66342429Y-73151289D01*
X66510576Y-73151289D01*
X66576266Y-73151531D01*
X66623172Y-73152556D01*
X66655083Y-73154811D01*
X66675791Y-73158742D01*
X66689084Y-73164798D01*
X66698755Y-73173424D01*
X66698817Y-73173493D01*
X66716356Y-73207112D01*
X66715722Y-73243448D01*
X66697314Y-73274423D01*
X66693671Y-73277607D01*
X66680741Y-73285812D01*
X66663024Y-73291521D01*
X66636570Y-73295162D01*
X66597432Y-73297167D01*
X66541662Y-73297964D01*
X66505994Y-73298045D01*
X66343555Y-73298045D01*
X66343555Y-73456089D01*
X66590161Y-73456089D01*
X66671580Y-73456231D01*
X66733410Y-73456814D01*
X66778637Y-73458068D01*
X66810248Y-73460227D01*
X66831231Y-73463523D01*
X66844573Y-73468189D01*
X66853261Y-73474457D01*
X66855450Y-73476733D01*
X66871614Y-73508280D01*
X66872797Y-73544168D01*
X66859536Y-73575285D01*
X66849043Y-73585271D01*
X66838129Y-73590769D01*
X66821217Y-73595022D01*
X66795633Y-73598180D01*
X66758701Y-73600392D01*
X66707746Y-73601806D01*
X66640094Y-73602572D01*
X66553069Y-73602838D01*
X66533394Y-73602845D01*
X66444911Y-73602787D01*
X66376227Y-73602467D01*
X66324564Y-73601667D01*
X66287145Y-73600167D01*
X66261190Y-73597749D01*
X66243922Y-73594194D01*
X66232562Y-73589282D01*
X66224332Y-73582795D01*
X66219817Y-73578138D01*
X66213021Y-73569889D01*
X66207712Y-73559669D01*
X66203706Y-73544800D01*
X66200821Y-73522602D01*
X66198874Y-73490393D01*
X66197681Y-73445496D01*
X66197061Y-73385228D01*
X66196829Y-73306911D01*
X66196800Y-73240994D01*
X66196871Y-73148628D01*
X66197208Y-73076117D01*
X66197998Y-73020737D01*
X66199426Y-72979765D01*
X66201679Y-72950478D01*
X66204943Y-72930153D01*
X66209404Y-72916066D01*
X66215248Y-72905495D01*
X66220197Y-72898811D01*
X66243594Y-72869067D01*
X66533774Y-72869067D01*
X66630343Y-72869260D01*
G37*
X61687206Y-72869146D02*
X61756614Y-72869518D01*
X61809003Y-72870385D01*
X61847153Y-72871946D01*
X61873841Y-72874403D01*
X61891847Y-72877957D01*
X61903951Y-72882810D01*
X61912931Y-72889161D01*
X61916182Y-72892084D01*
X61935957Y-72923142D01*
X61939518Y-72958828D01*
X61926509Y-72990510D01*
X61920494Y-72996913D01*
X61910765Y-73003121D01*
X61895099Y-73007910D01*
X61870592Y-73011514D01*
X61834339Y-73014164D01*
X61783435Y-73016095D01*
X61714974Y-73017539D01*
X61652383Y-73018418D01*
X61404666Y-73021467D01*
X61401281Y-73086378D01*
X61397895Y-73151289D01*
X61566042Y-73151289D01*
X61639041Y-73151919D01*
X61692483Y-73154553D01*
X61729372Y-73160309D01*
X61752712Y-73170304D01*
X61765506Y-73185656D01*
X61770758Y-73207482D01*
X61771555Y-73227738D01*
X61769077Y-73252592D01*
X61759723Y-73270906D01*
X61740617Y-73283637D01*
X61708882Y-73291741D01*
X61661641Y-73296176D01*
X61596017Y-73297899D01*
X61560199Y-73298045D01*
X61399022Y-73298045D01*
X61399022Y-73456089D01*
X61647378Y-73456089D01*
X61728787Y-73456202D01*
X61790658Y-73456712D01*
X61836032Y-73457870D01*
X61867946Y-73459930D01*
X61889441Y-73463146D01*
X61903557Y-73467772D01*
X61913332Y-73474059D01*
X61918311Y-73478667D01*
X61935390Y-73505560D01*
X61940889Y-73529467D01*
X61933037Y-73558667D01*
X61918311Y-73580267D01*
X61910454Y-73587066D01*
X61900312Y-73592346D01*
X61885156Y-73596298D01*
X61862259Y-73599113D01*
X61828891Y-73600982D01*
X61782325Y-73602098D01*
X61719833Y-73602651D01*
X61638686Y-73602833D01*
X61596578Y-73602845D01*
X61506402Y-73602765D01*
X61436076Y-73602398D01*
X61382871Y-73601552D01*
X61344060Y-73600036D01*
X61316913Y-73597659D01*
X61298702Y-73594229D01*
X61286700Y-73589554D01*
X61278178Y-73583444D01*
X61274844Y-73580267D01*
X61268245Y-73572670D01*
X61263073Y-73562870D01*
X61259154Y-73548239D01*
X61256316Y-73526152D01*
X61254385Y-73493982D01*
X61253188Y-73449103D01*
X61252552Y-73388889D01*
X61252303Y-73310713D01*
X61252266Y-73237923D01*
X61252300Y-73144707D01*
X61252535Y-73071431D01*
X61253170Y-73015458D01*
X61254406Y-72974151D01*
X61256444Y-72944872D01*
X61259483Y-72924984D01*
X61263723Y-72911850D01*
X61269365Y-72902832D01*
X61276609Y-72895293D01*
X61278394Y-72893612D01*
X61287055Y-72886172D01*
X61297118Y-72880409D01*
X61311375Y-72876112D01*
X61332617Y-72873064D01*
X61363636Y-72871051D01*
X61407223Y-72869860D01*
X61466169Y-72869275D01*
X61543266Y-72869083D01*
X61597999Y-72869067D01*
X61687206Y-72869146D01*
G36*
X61687206Y-72869146D02*
G01*
X61756614Y-72869518D01*
X61809003Y-72870385D01*
X61847153Y-72871946D01*
X61873841Y-72874403D01*
X61891847Y-72877957D01*
X61903951Y-72882810D01*
X61912931Y-72889161D01*
X61916182Y-72892084D01*
X61935957Y-72923142D01*
X61939518Y-72958828D01*
X61926509Y-72990510D01*
X61920494Y-72996913D01*
X61910765Y-73003121D01*
X61895099Y-73007910D01*
X61870592Y-73011514D01*
X61834339Y-73014164D01*
X61783435Y-73016095D01*
X61714974Y-73017539D01*
X61652383Y-73018418D01*
X61404666Y-73021467D01*
X61401281Y-73086378D01*
X61397895Y-73151289D01*
X61566042Y-73151289D01*
X61639041Y-73151919D01*
X61692483Y-73154553D01*
X61729372Y-73160309D01*
X61752712Y-73170304D01*
X61765506Y-73185656D01*
X61770758Y-73207482D01*
X61771555Y-73227738D01*
X61769077Y-73252592D01*
X61759723Y-73270906D01*
X61740617Y-73283637D01*
X61708882Y-73291741D01*
X61661641Y-73296176D01*
X61596017Y-73297899D01*
X61560199Y-73298045D01*
X61399022Y-73298045D01*
X61399022Y-73456089D01*
X61647378Y-73456089D01*
X61728787Y-73456202D01*
X61790658Y-73456712D01*
X61836032Y-73457870D01*
X61867946Y-73459930D01*
X61889441Y-73463146D01*
X61903557Y-73467772D01*
X61913332Y-73474059D01*
X61918311Y-73478667D01*
X61935390Y-73505560D01*
X61940889Y-73529467D01*
X61933037Y-73558667D01*
X61918311Y-73580267D01*
X61910454Y-73587066D01*
X61900312Y-73592346D01*
X61885156Y-73596298D01*
X61862259Y-73599113D01*
X61828891Y-73600982D01*
X61782325Y-73602098D01*
X61719833Y-73602651D01*
X61638686Y-73602833D01*
X61596578Y-73602845D01*
X61506402Y-73602765D01*
X61436076Y-73602398D01*
X61382871Y-73601552D01*
X61344060Y-73600036D01*
X61316913Y-73597659D01*
X61298702Y-73594229D01*
X61286700Y-73589554D01*
X61278178Y-73583444D01*
X61274844Y-73580267D01*
X61268245Y-73572670D01*
X61263073Y-73562870D01*
X61259154Y-73548239D01*
X61256316Y-73526152D01*
X61254385Y-73493982D01*
X61253188Y-73449103D01*
X61252552Y-73388889D01*
X61252303Y-73310713D01*
X61252266Y-73237923D01*
X61252300Y-73144707D01*
X61252535Y-73071431D01*
X61253170Y-73015458D01*
X61254406Y-72974151D01*
X61256444Y-72944872D01*
X61259483Y-72924984D01*
X61263723Y-72911850D01*
X61269365Y-72902832D01*
X61276609Y-72895293D01*
X61278394Y-72893612D01*
X61287055Y-72886172D01*
X61297118Y-72880409D01*
X61311375Y-72876112D01*
X61332617Y-72873064D01*
X61363636Y-72871051D01*
X61407223Y-72869860D01*
X61466169Y-72869275D01*
X61543266Y-72869083D01*
X61597999Y-72869067D01*
X61687206Y-72869146D01*
G37*
X70144665Y-72871034D02*
X70164255Y-72878035D01*
X70165010Y-72878377D01*
X70191613Y-72898678D01*
X70206270Y-72919561D01*
X70209138Y-72929352D01*
X70208996Y-72942361D01*
X70204961Y-72960895D01*
X70196146Y-72987257D01*
X70181669Y-73023752D01*
X70160645Y-73072687D01*
X70132188Y-73136365D01*
X70095415Y-73217093D01*
X70075175Y-73261216D01*
X70038625Y-73339985D01*
X70004315Y-73412423D01*
X69973552Y-73475880D01*
X69947648Y-73527708D01*
X69927910Y-73565259D01*
X69915650Y-73585884D01*
X69913224Y-73588733D01*
X69882183Y-73601302D01*
X69847121Y-73599619D01*
X69819000Y-73584332D01*
X69817854Y-73583089D01*
X69806668Y-73566154D01*
X69787904Y-73533170D01*
X69763875Y-73488380D01*
X69736897Y-73436032D01*
X69727201Y-73416742D01*
X69654014Y-73270150D01*
X69574240Y-73429393D01*
X69545767Y-73484415D01*
X69519350Y-73532132D01*
X69497148Y-73568893D01*
X69481319Y-73591044D01*
X69475954Y-73595741D01*
X69434257Y-73602102D01*
X69399849Y-73588733D01*
X69389728Y-73574446D01*
X69372214Y-73542692D01*
X69348735Y-73496597D01*
X69320720Y-73439285D01*
X69289599Y-73373880D01*
X69256799Y-73303507D01*
X69223750Y-73231291D01*
X69191881Y-73160355D01*
X69162619Y-73093825D01*
X69137395Y-73034826D01*
X69117636Y-72986481D01*
X69104772Y-72951915D01*
X69100231Y-72934253D01*
X69100277Y-72933613D01*
X69111326Y-72911388D01*
X69133410Y-72888753D01*
X69134710Y-72887768D01*
X69161853Y-72872425D01*
X69186958Y-72872574D01*
X69196368Y-72875466D01*
X69207834Y-72881718D01*
X69220010Y-72894014D01*
X69234357Y-72914908D01*
X69252336Y-72946949D01*
X69275407Y-72992688D01*
X69305030Y-73054677D01*
X69331745Y-73111898D01*
X69362480Y-73178226D01*
X69390021Y-73237874D01*
X69412938Y-73287725D01*
X69429798Y-73324664D01*
X69439173Y-73345573D01*
X69440540Y-73348845D01*
X69446689Y-73343497D01*
X69460822Y-73321109D01*
X69481057Y-73284946D01*
X69505515Y-73238277D01*
X69515248Y-73219022D01*
X69548217Y-73154004D01*
X69573643Y-73106654D01*
X69593612Y-73074219D01*
X69610210Y-73053946D01*
X69625524Y-73043082D01*
X69641640Y-73038875D01*
X69652143Y-73038400D01*
X69670670Y-73040042D01*
X69686904Y-73046831D01*
X69703035Y-73061566D01*
X69721251Y-73087044D01*
X69743739Y-73126061D01*
X69772689Y-73181414D01*
X69788662Y-73212903D01*
X69814570Y-73263087D01*
X69837167Y-73304704D01*
X69854458Y-73334242D01*
X69864450Y-73348189D01*
X69865809Y-73348770D01*
X69872261Y-73337793D01*
X69886708Y-73309290D01*
X69907703Y-73266244D01*
X69933797Y-73211638D01*
X69963546Y-73148454D01*
X69978180Y-73117071D01*
X70016250Y-73036078D01*
X70046905Y-72973756D01*
X70071737Y-72928071D01*
X70092337Y-72896989D01*
X70110298Y-72878478D01*
X70127210Y-72870504D01*
X70144665Y-72871034D01*
G36*
X70144665Y-72871034D02*
G01*
X70164255Y-72878035D01*
X70165010Y-72878377D01*
X70191613Y-72898678D01*
X70206270Y-72919561D01*
X70209138Y-72929352D01*
X70208996Y-72942361D01*
X70204961Y-72960895D01*
X70196146Y-72987257D01*
X70181669Y-73023752D01*
X70160645Y-73072687D01*
X70132188Y-73136365D01*
X70095415Y-73217093D01*
X70075175Y-73261216D01*
X70038625Y-73339985D01*
X70004315Y-73412423D01*
X69973552Y-73475880D01*
X69947648Y-73527708D01*
X69927910Y-73565259D01*
X69915650Y-73585884D01*
X69913224Y-73588733D01*
X69882183Y-73601302D01*
X69847121Y-73599619D01*
X69819000Y-73584332D01*
X69817854Y-73583089D01*
X69806668Y-73566154D01*
X69787904Y-73533170D01*
X69763875Y-73488380D01*
X69736897Y-73436032D01*
X69727201Y-73416742D01*
X69654014Y-73270150D01*
X69574240Y-73429393D01*
X69545767Y-73484415D01*
X69519350Y-73532132D01*
X69497148Y-73568893D01*
X69481319Y-73591044D01*
X69475954Y-73595741D01*
X69434257Y-73602102D01*
X69399849Y-73588733D01*
X69389728Y-73574446D01*
X69372214Y-73542692D01*
X69348735Y-73496597D01*
X69320720Y-73439285D01*
X69289599Y-73373880D01*
X69256799Y-73303507D01*
X69223750Y-73231291D01*
X69191881Y-73160355D01*
X69162619Y-73093825D01*
X69137395Y-73034826D01*
X69117636Y-72986481D01*
X69104772Y-72951915D01*
X69100231Y-72934253D01*
X69100277Y-72933613D01*
X69111326Y-72911388D01*
X69133410Y-72888753D01*
X69134710Y-72887768D01*
X69161853Y-72872425D01*
X69186958Y-72872574D01*
X69196368Y-72875466D01*
X69207834Y-72881718D01*
X69220010Y-72894014D01*
X69234357Y-72914908D01*
X69252336Y-72946949D01*
X69275407Y-72992688D01*
X69305030Y-73054677D01*
X69331745Y-73111898D01*
X69362480Y-73178226D01*
X69390021Y-73237874D01*
X69412938Y-73287725D01*
X69429798Y-73324664D01*
X69439173Y-73345573D01*
X69440540Y-73348845D01*
X69446689Y-73343497D01*
X69460822Y-73321109D01*
X69481057Y-73284946D01*
X69505515Y-73238277D01*
X69515248Y-73219022D01*
X69548217Y-73154004D01*
X69573643Y-73106654D01*
X69593612Y-73074219D01*
X69610210Y-73053946D01*
X69625524Y-73043082D01*
X69641640Y-73038875D01*
X69652143Y-73038400D01*
X69670670Y-73040042D01*
X69686904Y-73046831D01*
X69703035Y-73061566D01*
X69721251Y-73087044D01*
X69743739Y-73126061D01*
X69772689Y-73181414D01*
X69788662Y-73212903D01*
X69814570Y-73263087D01*
X69837167Y-73304704D01*
X69854458Y-73334242D01*
X69864450Y-73348189D01*
X69865809Y-73348770D01*
X69872261Y-73337793D01*
X69886708Y-73309290D01*
X69907703Y-73266244D01*
X69933797Y-73211638D01*
X69963546Y-73148454D01*
X69978180Y-73117071D01*
X70016250Y-73036078D01*
X70046905Y-72973756D01*
X70071737Y-72928071D01*
X70092337Y-72896989D01*
X70110298Y-72878478D01*
X70127210Y-72870504D01*
X70144665Y-72871034D01*
G37*
X62708297Y-72870351D02*
X62783112Y-72875581D01*
X62852694Y-72883750D01*
X62912998Y-72894550D01*
X62959980Y-72907673D01*
X62989594Y-72922813D01*
X62994140Y-72927269D01*
X63009946Y-72961850D01*
X63005153Y-72997351D01*
X62980636Y-73027725D01*
X62979466Y-73028596D01*
X62965046Y-73037954D01*
X62949992Y-73042876D01*
X62928995Y-73043473D01*
X62896743Y-73039861D01*
X62847927Y-73032154D01*
X62844000Y-73031505D01*
X62771261Y-73022569D01*
X62692783Y-73018161D01*
X62614073Y-73018119D01*
X62540639Y-73022279D01*
X62477989Y-73030479D01*
X62431630Y-73042557D01*
X62428584Y-73043771D01*
X62394952Y-73062615D01*
X62383136Y-73081685D01*
X62392386Y-73100439D01*
X62421953Y-73118337D01*
X62471089Y-73134837D01*
X62539043Y-73149396D01*
X62584355Y-73156406D01*
X62678544Y-73169889D01*
X62753456Y-73182214D01*
X62812283Y-73194449D01*
X62858215Y-73207661D01*
X62894445Y-73222917D01*
X62924162Y-73241285D01*
X62950558Y-73263831D01*
X62971770Y-73285971D01*
X62996935Y-73316819D01*
X63009319Y-73343345D01*
X63013192Y-73376026D01*
X63013333Y-73387995D01*
X63010424Y-73427712D01*
X62998798Y-73457259D01*
X62978677Y-73483486D01*
X62937784Y-73523576D01*
X62892183Y-73554149D01*
X62838487Y-73576203D01*
X62773308Y-73590735D01*
X62693256Y-73598741D01*
X62594943Y-73601218D01*
X62578711Y-73601177D01*
X62513151Y-73599818D01*
X62448134Y-73596730D01*
X62390748Y-73592356D01*
X62348078Y-73587140D01*
X62344628Y-73586541D01*
X62302204Y-73576491D01*
X62266220Y-73563796D01*
X62245850Y-73552190D01*
X62226893Y-73521572D01*
X62225573Y-73485918D01*
X62241915Y-73454144D01*
X62245571Y-73450551D01*
X62260685Y-73439876D01*
X62279585Y-73435276D01*
X62308838Y-73436059D01*
X62344349Y-73440127D01*
X62384030Y-73443762D01*
X62439655Y-73446828D01*
X62504594Y-73449053D01*
X62572215Y-73450164D01*
X62590000Y-73450237D01*
X62657872Y-73449964D01*
X62707546Y-73448646D01*
X62743390Y-73445827D01*
X62769776Y-73441050D01*
X62791074Y-73433857D01*
X62803874Y-73427867D01*
X62832000Y-73411233D01*
X62849932Y-73396168D01*
X62852553Y-73391897D01*
X62847024Y-73374263D01*
X62820740Y-73357192D01*
X62775522Y-73341458D01*
X62713192Y-73327838D01*
X62694829Y-73324804D01*
X62598910Y-73309738D01*
X62522359Y-73297146D01*
X62462220Y-73286111D01*
X62415540Y-73275720D01*
X62379363Y-73265056D01*
X62350735Y-73253205D01*
X62326702Y-73239251D01*
X62304308Y-73222281D01*
X62280598Y-73201378D01*
X62272620Y-73194049D01*
X62244647Y-73166699D01*
X62229840Y-73145029D01*
X62224048Y-73120232D01*
X62223111Y-73088983D01*
X62233425Y-73027705D01*
X62264248Y-72975640D01*
X62315405Y-72932958D01*
X62386717Y-72899825D01*
X62437600Y-72884964D01*
X62492900Y-72875366D01*
X62559147Y-72869936D01*
X62632294Y-72868367D01*
X62708297Y-72870351D01*
G36*
X62708297Y-72870351D02*
G01*
X62783112Y-72875581D01*
X62852694Y-72883750D01*
X62912998Y-72894550D01*
X62959980Y-72907673D01*
X62989594Y-72922813D01*
X62994140Y-72927269D01*
X63009946Y-72961850D01*
X63005153Y-72997351D01*
X62980636Y-73027725D01*
X62979466Y-73028596D01*
X62965046Y-73037954D01*
X62949992Y-73042876D01*
X62928995Y-73043473D01*
X62896743Y-73039861D01*
X62847927Y-73032154D01*
X62844000Y-73031505D01*
X62771261Y-73022569D01*
X62692783Y-73018161D01*
X62614073Y-73018119D01*
X62540639Y-73022279D01*
X62477989Y-73030479D01*
X62431630Y-73042557D01*
X62428584Y-73043771D01*
X62394952Y-73062615D01*
X62383136Y-73081685D01*
X62392386Y-73100439D01*
X62421953Y-73118337D01*
X62471089Y-73134837D01*
X62539043Y-73149396D01*
X62584355Y-73156406D01*
X62678544Y-73169889D01*
X62753456Y-73182214D01*
X62812283Y-73194449D01*
X62858215Y-73207661D01*
X62894445Y-73222917D01*
X62924162Y-73241285D01*
X62950558Y-73263831D01*
X62971770Y-73285971D01*
X62996935Y-73316819D01*
X63009319Y-73343345D01*
X63013192Y-73376026D01*
X63013333Y-73387995D01*
X63010424Y-73427712D01*
X62998798Y-73457259D01*
X62978677Y-73483486D01*
X62937784Y-73523576D01*
X62892183Y-73554149D01*
X62838487Y-73576203D01*
X62773308Y-73590735D01*
X62693256Y-73598741D01*
X62594943Y-73601218D01*
X62578711Y-73601177D01*
X62513151Y-73599818D01*
X62448134Y-73596730D01*
X62390748Y-73592356D01*
X62348078Y-73587140D01*
X62344628Y-73586541D01*
X62302204Y-73576491D01*
X62266220Y-73563796D01*
X62245850Y-73552190D01*
X62226893Y-73521572D01*
X62225573Y-73485918D01*
X62241915Y-73454144D01*
X62245571Y-73450551D01*
X62260685Y-73439876D01*
X62279585Y-73435276D01*
X62308838Y-73436059D01*
X62344349Y-73440127D01*
X62384030Y-73443762D01*
X62439655Y-73446828D01*
X62504594Y-73449053D01*
X62572215Y-73450164D01*
X62590000Y-73450237D01*
X62657872Y-73449964D01*
X62707546Y-73448646D01*
X62743390Y-73445827D01*
X62769776Y-73441050D01*
X62791074Y-73433857D01*
X62803874Y-73427867D01*
X62832000Y-73411233D01*
X62849932Y-73396168D01*
X62852553Y-73391897D01*
X62847024Y-73374263D01*
X62820740Y-73357192D01*
X62775522Y-73341458D01*
X62713192Y-73327838D01*
X62694829Y-73324804D01*
X62598910Y-73309738D01*
X62522359Y-73297146D01*
X62462220Y-73286111D01*
X62415540Y-73275720D01*
X62379363Y-73265056D01*
X62350735Y-73253205D01*
X62326702Y-73239251D01*
X62304308Y-73222281D01*
X62280598Y-73201378D01*
X62272620Y-73194049D01*
X62244647Y-73166699D01*
X62229840Y-73145029D01*
X62224048Y-73120232D01*
X62223111Y-73088983D01*
X62233425Y-73027705D01*
X62264248Y-72975640D01*
X62315405Y-72932958D01*
X62386717Y-72899825D01*
X62437600Y-72884964D01*
X62492900Y-72875366D01*
X62559147Y-72869936D01*
X62632294Y-72868367D01*
X62708297Y-72870351D01*
G37*
X66728429Y-68549071D02*
X66888570Y-68570245D01*
X67052510Y-68610385D01*
X67222313Y-68669889D01*
X67400043Y-68749154D01*
X67411310Y-68754699D01*
X67469005Y-68782725D01*
X67520552Y-68806802D01*
X67562191Y-68825249D01*
X67590162Y-68836386D01*
X67599733Y-68838933D01*
X67618950Y-68843941D01*
X67623561Y-68848147D01*
X67618458Y-68858580D01*
X67602418Y-68884868D01*
X67577288Y-68924257D01*
X67544914Y-68973991D01*
X67507143Y-69031315D01*
X67465822Y-69093476D01*
X67422798Y-69157718D01*
X67379917Y-69221285D01*
X67339026Y-69281425D01*
X67301971Y-69335380D01*
X67270600Y-69380397D01*
X67246759Y-69413721D01*
X67232294Y-69432597D01*
X67230309Y-69434787D01*
X67220191Y-69430138D01*
X67197850Y-69412962D01*
X67167280Y-69386440D01*
X67151536Y-69371964D01*
X67055047Y-69296682D01*
X66948336Y-69241241D01*
X66832832Y-69206141D01*
X66709962Y-69191880D01*
X66640561Y-69193051D01*
X66519423Y-69210212D01*
X66410205Y-69246094D01*
X66312582Y-69300959D01*
X66226228Y-69375070D01*
X66150815Y-69468688D01*
X66086018Y-69582076D01*
X66048601Y-69668667D01*
X66004748Y-69804366D01*
X65972428Y-69951850D01*
X65951557Y-70107314D01*
X65942051Y-70266956D01*
X65943827Y-70426973D01*
X65956803Y-70583561D01*
X65980894Y-70732918D01*
X66016018Y-70871240D01*
X66062092Y-70994724D01*
X66078373Y-71028978D01*
X66146620Y-71143064D01*
X66227079Y-71239557D01*
X66318570Y-71317670D01*
X66419911Y-71376617D01*
X66529920Y-71415612D01*
X66647415Y-71433868D01*
X66688883Y-71435211D01*
X66810441Y-71424290D01*
X66930878Y-71391474D01*
X67048666Y-71337439D01*
X67162277Y-71262865D01*
X67253685Y-71184539D01*
X67300215Y-71140008D01*
X67481483Y-71437271D01*
X67526580Y-71511433D01*
X67567819Y-71579646D01*
X67603735Y-71639459D01*
X67632866Y-71688420D01*
X67653750Y-71724079D01*
X67664924Y-71743984D01*
X67666375Y-71747079D01*
X67658146Y-71756718D01*
X67632567Y-71773999D01*
X67592873Y-71797283D01*
X67542297Y-71824934D01*
X67484074Y-71855315D01*
X67421437Y-71886790D01*
X67357621Y-71917722D01*
X67295860Y-71946473D01*
X67239388Y-71971408D01*
X67191438Y-71990889D01*
X67167986Y-71999318D01*
X67034221Y-72037133D01*
X66896327Y-72062136D01*
X66748622Y-72075140D01*
X66621833Y-72077468D01*
X66553878Y-72076373D01*
X66488277Y-72074275D01*
X66430847Y-72071434D01*
X66387403Y-72068106D01*
X66373298Y-72066422D01*
X66234284Y-72037587D01*
X66092757Y-71992468D01*
X65955275Y-71933750D01*
X65828394Y-71864120D01*
X65750889Y-71811441D01*
X65623481Y-71703239D01*
X65505178Y-71576671D01*
X65398172Y-71434866D01*
X65304652Y-71280951D01*
X65226810Y-71118053D01*
X65182956Y-71000756D01*
X65132708Y-70817128D01*
X65099209Y-70622581D01*
X65082449Y-70421325D01*
X65082416Y-70217568D01*
X65099101Y-70015521D01*
X65132493Y-69819392D01*
X65182580Y-69633391D01*
X65186397Y-69621803D01*
X65249281Y-69459750D01*
X65326028Y-69311832D01*
X65419242Y-69173865D01*
X65531527Y-69041661D01*
X65575392Y-68996399D01*
X65711534Y-68872457D01*
X65851491Y-68769915D01*
X65997411Y-68687656D01*
X66151442Y-68624564D01*
X66315732Y-68579523D01*
X66411289Y-68562033D01*
X66570023Y-68546466D01*
X66728429Y-68549071D01*
G36*
X66728429Y-68549071D02*
G01*
X66888570Y-68570245D01*
X67052510Y-68610385D01*
X67222313Y-68669889D01*
X67400043Y-68749154D01*
X67411310Y-68754699D01*
X67469005Y-68782725D01*
X67520552Y-68806802D01*
X67562191Y-68825249D01*
X67590162Y-68836386D01*
X67599733Y-68838933D01*
X67618950Y-68843941D01*
X67623561Y-68848147D01*
X67618458Y-68858580D01*
X67602418Y-68884868D01*
X67577288Y-68924257D01*
X67544914Y-68973991D01*
X67507143Y-69031315D01*
X67465822Y-69093476D01*
X67422798Y-69157718D01*
X67379917Y-69221285D01*
X67339026Y-69281425D01*
X67301971Y-69335380D01*
X67270600Y-69380397D01*
X67246759Y-69413721D01*
X67232294Y-69432597D01*
X67230309Y-69434787D01*
X67220191Y-69430138D01*
X67197850Y-69412962D01*
X67167280Y-69386440D01*
X67151536Y-69371964D01*
X67055047Y-69296682D01*
X66948336Y-69241241D01*
X66832832Y-69206141D01*
X66709962Y-69191880D01*
X66640561Y-69193051D01*
X66519423Y-69210212D01*
X66410205Y-69246094D01*
X66312582Y-69300959D01*
X66226228Y-69375070D01*
X66150815Y-69468688D01*
X66086018Y-69582076D01*
X66048601Y-69668667D01*
X66004748Y-69804366D01*
X65972428Y-69951850D01*
X65951557Y-70107314D01*
X65942051Y-70266956D01*
X65943827Y-70426973D01*
X65956803Y-70583561D01*
X65980894Y-70732918D01*
X66016018Y-70871240D01*
X66062092Y-70994724D01*
X66078373Y-71028978D01*
X66146620Y-71143064D01*
X66227079Y-71239557D01*
X66318570Y-71317670D01*
X66419911Y-71376617D01*
X66529920Y-71415612D01*
X66647415Y-71433868D01*
X66688883Y-71435211D01*
X66810441Y-71424290D01*
X66930878Y-71391474D01*
X67048666Y-71337439D01*
X67162277Y-71262865D01*
X67253685Y-71184539D01*
X67300215Y-71140008D01*
X67481483Y-71437271D01*
X67526580Y-71511433D01*
X67567819Y-71579646D01*
X67603735Y-71639459D01*
X67632866Y-71688420D01*
X67653750Y-71724079D01*
X67664924Y-71743984D01*
X67666375Y-71747079D01*
X67658146Y-71756718D01*
X67632567Y-71773999D01*
X67592873Y-71797283D01*
X67542297Y-71824934D01*
X67484074Y-71855315D01*
X67421437Y-71886790D01*
X67357621Y-71917722D01*
X67295860Y-71946473D01*
X67239388Y-71971408D01*
X67191438Y-71990889D01*
X67167986Y-71999318D01*
X67034221Y-72037133D01*
X66896327Y-72062136D01*
X66748622Y-72075140D01*
X66621833Y-72077468D01*
X66553878Y-72076373D01*
X66488277Y-72074275D01*
X66430847Y-72071434D01*
X66387403Y-72068106D01*
X66373298Y-72066422D01*
X66234284Y-72037587D01*
X66092757Y-71992468D01*
X65955275Y-71933750D01*
X65828394Y-71864120D01*
X65750889Y-71811441D01*
X65623481Y-71703239D01*
X65505178Y-71576671D01*
X65398172Y-71434866D01*
X65304652Y-71280951D01*
X65226810Y-71118053D01*
X65182956Y-71000756D01*
X65132708Y-70817128D01*
X65099209Y-70622581D01*
X65082449Y-70421325D01*
X65082416Y-70217568D01*
X65099101Y-70015521D01*
X65132493Y-69819392D01*
X65182580Y-69633391D01*
X65186397Y-69621803D01*
X65249281Y-69459750D01*
X65326028Y-69311832D01*
X65419242Y-69173865D01*
X65531527Y-69041661D01*
X65575392Y-68996399D01*
X65711534Y-68872457D01*
X65851491Y-68769915D01*
X65997411Y-68687656D01*
X66151442Y-68624564D01*
X66315732Y-68579523D01*
X66411289Y-68562033D01*
X66570023Y-68546466D01*
X66728429Y-68549071D01*
G37*
X72586507Y-70072245D02*
X72586526Y-70306662D01*
X72586552Y-70519603D01*
X72586625Y-70712168D01*
X72586782Y-70885459D01*
X72587064Y-71040576D01*
X72587509Y-71178620D01*
X72588156Y-71300692D01*
X72589045Y-71407894D01*
X72590213Y-71501326D01*
X72591701Y-71582090D01*
X72593546Y-71651286D01*
X72595789Y-71710015D01*
X72598469Y-71759379D01*
X72601623Y-71800478D01*
X72605292Y-71834413D01*
X72609513Y-71862286D01*
X72614327Y-71885198D01*
X72619773Y-71904249D01*
X72625888Y-71920540D01*
X72632712Y-71935173D01*
X72640285Y-71949249D01*
X72648645Y-71963868D01*
X72653839Y-71972974D01*
X72688104Y-72033689D01*
X71829955Y-72033689D01*
X71829955Y-71937733D01*
X71829224Y-71894370D01*
X71827272Y-71861205D01*
X71824463Y-71843424D01*
X71823221Y-71841778D01*
X71811799Y-71848662D01*
X71789084Y-71866505D01*
X71766385Y-71885879D01*
X71711800Y-71926614D01*
X71642321Y-71967617D01*
X71565270Y-72005123D01*
X71487965Y-72035364D01*
X71457113Y-72045012D01*
X71388616Y-72059578D01*
X71305764Y-72069539D01*
X71216371Y-72074583D01*
X71128248Y-72074396D01*
X71049207Y-72068666D01*
X71011511Y-72062858D01*
X70873414Y-72024797D01*
X70746113Y-71967073D01*
X70630292Y-71890211D01*
X70526637Y-71794739D01*
X70435833Y-71681179D01*
X70369031Y-71570381D01*
X70314164Y-71453625D01*
X70272163Y-71334276D01*
X70242167Y-71208283D01*
X70223311Y-71071594D01*
X70214732Y-70920158D01*
X70214006Y-70842711D01*
X70216100Y-70785934D01*
X71045217Y-70785934D01*
X71045424Y-70879002D01*
X71048337Y-70966692D01*
X71054000Y-71043772D01*
X71062455Y-71105009D01*
X71065038Y-71117350D01*
X71096840Y-71224633D01*
X71138498Y-71311658D01*
X71190363Y-71378642D01*
X71252781Y-71425805D01*
X71326100Y-71453365D01*
X71410669Y-71461541D01*
X71506835Y-71450551D01*
X71570311Y-71434829D01*
X71619454Y-71416639D01*
X71673583Y-71390791D01*
X71714244Y-71367089D01*
X71784800Y-71320721D01*
X71784800Y-70170530D01*
X71717392Y-70126962D01*
X71638867Y-70086040D01*
X71554681Y-70059389D01*
X71469557Y-70047465D01*
X71388216Y-70050722D01*
X71315380Y-70069615D01*
X71283426Y-70085184D01*
X71225501Y-70128181D01*
X71176544Y-70184953D01*
X71135390Y-70257575D01*
X71100874Y-70348121D01*
X71071833Y-70458666D01*
X71070552Y-70464533D01*
X71060381Y-70526788D01*
X71052739Y-70604594D01*
X71047670Y-70692720D01*
X71045217Y-70785934D01*
X70216100Y-70785934D01*
X70221857Y-70629895D01*
X70243802Y-70434059D01*
X70279786Y-70255332D01*
X70329759Y-70093845D01*
X70393668Y-69949726D01*
X70471462Y-69823106D01*
X70563089Y-69714115D01*
X70668497Y-69622883D01*
X70713662Y-69591932D01*
X70814611Y-69535785D01*
X70917901Y-69496174D01*
X71027989Y-69472014D01*
X71149330Y-69462219D01*
X71241836Y-69463265D01*
X71371490Y-69474231D01*
X71484084Y-69496046D01*
X71582875Y-69529714D01*
X71671121Y-69576236D01*
X71719986Y-69610448D01*
X71749353Y-69632362D01*
X71771043Y-69647333D01*
X71779253Y-69651733D01*
X71780868Y-69640904D01*
X71782159Y-69610251D01*
X71783138Y-69562526D01*
X71783817Y-69500479D01*
X71784210Y-69426862D01*
X71784330Y-69344427D01*
X71784188Y-69255925D01*
X71783797Y-69164107D01*
X71783171Y-69071724D01*
X71782320Y-68981528D01*
X71781260Y-68896271D01*
X71780001Y-68818703D01*
X71778556Y-68751576D01*
X71776938Y-68697641D01*
X71775161Y-68659650D01*
X71774669Y-68652667D01*
X71767092Y-68582251D01*
X71755531Y-68527102D01*
X71737792Y-68479981D01*
X71711682Y-68433647D01*
X71705415Y-68424067D01*
X71680983Y-68387378D01*
X72586311Y-68387378D01*
X72586507Y-70072245D01*
G36*
X72586507Y-70072245D02*
G01*
X72586526Y-70306662D01*
X72586552Y-70519603D01*
X72586625Y-70712168D01*
X72586782Y-70885459D01*
X72587064Y-71040576D01*
X72587509Y-71178620D01*
X72588156Y-71300692D01*
X72589045Y-71407894D01*
X72590213Y-71501326D01*
X72591701Y-71582090D01*
X72593546Y-71651286D01*
X72595789Y-71710015D01*
X72598469Y-71759379D01*
X72601623Y-71800478D01*
X72605292Y-71834413D01*
X72609513Y-71862286D01*
X72614327Y-71885198D01*
X72619773Y-71904249D01*
X72625888Y-71920540D01*
X72632712Y-71935173D01*
X72640285Y-71949249D01*
X72648645Y-71963868D01*
X72653839Y-71972974D01*
X72688104Y-72033689D01*
X71829955Y-72033689D01*
X71829955Y-71937733D01*
X71829224Y-71894370D01*
X71827272Y-71861205D01*
X71824463Y-71843424D01*
X71823221Y-71841778D01*
X71811799Y-71848662D01*
X71789084Y-71866505D01*
X71766385Y-71885879D01*
X71711800Y-71926614D01*
X71642321Y-71967617D01*
X71565270Y-72005123D01*
X71487965Y-72035364D01*
X71457113Y-72045012D01*
X71388616Y-72059578D01*
X71305764Y-72069539D01*
X71216371Y-72074583D01*
X71128248Y-72074396D01*
X71049207Y-72068666D01*
X71011511Y-72062858D01*
X70873414Y-72024797D01*
X70746113Y-71967073D01*
X70630292Y-71890211D01*
X70526637Y-71794739D01*
X70435833Y-71681179D01*
X70369031Y-71570381D01*
X70314164Y-71453625D01*
X70272163Y-71334276D01*
X70242167Y-71208283D01*
X70223311Y-71071594D01*
X70214732Y-70920158D01*
X70214006Y-70842711D01*
X70216100Y-70785934D01*
X71045217Y-70785934D01*
X71045424Y-70879002D01*
X71048337Y-70966692D01*
X71054000Y-71043772D01*
X71062455Y-71105009D01*
X71065038Y-71117350D01*
X71096840Y-71224633D01*
X71138498Y-71311658D01*
X71190363Y-71378642D01*
X71252781Y-71425805D01*
X71326100Y-71453365D01*
X71410669Y-71461541D01*
X71506835Y-71450551D01*
X71570311Y-71434829D01*
X71619454Y-71416639D01*
X71673583Y-71390791D01*
X71714244Y-71367089D01*
X71784800Y-71320721D01*
X71784800Y-70170530D01*
X71717392Y-70126962D01*
X71638867Y-70086040D01*
X71554681Y-70059389D01*
X71469557Y-70047465D01*
X71388216Y-70050722D01*
X71315380Y-70069615D01*
X71283426Y-70085184D01*
X71225501Y-70128181D01*
X71176544Y-70184953D01*
X71135390Y-70257575D01*
X71100874Y-70348121D01*
X71071833Y-70458666D01*
X71070552Y-70464533D01*
X71060381Y-70526788D01*
X71052739Y-70604594D01*
X71047670Y-70692720D01*
X71045217Y-70785934D01*
X70216100Y-70785934D01*
X70221857Y-70629895D01*
X70243802Y-70434059D01*
X70279786Y-70255332D01*
X70329759Y-70093845D01*
X70393668Y-69949726D01*
X70471462Y-69823106D01*
X70563089Y-69714115D01*
X70668497Y-69622883D01*
X70713662Y-69591932D01*
X70814611Y-69535785D01*
X70917901Y-69496174D01*
X71027989Y-69472014D01*
X71149330Y-69462219D01*
X71241836Y-69463265D01*
X71371490Y-69474231D01*
X71484084Y-69496046D01*
X71582875Y-69529714D01*
X71671121Y-69576236D01*
X71719986Y-69610448D01*
X71749353Y-69632362D01*
X71771043Y-69647333D01*
X71779253Y-69651733D01*
X71780868Y-69640904D01*
X71782159Y-69610251D01*
X71783138Y-69562526D01*
X71783817Y-69500479D01*
X71784210Y-69426862D01*
X71784330Y-69344427D01*
X71784188Y-69255925D01*
X71783797Y-69164107D01*
X71783171Y-69071724D01*
X71782320Y-68981528D01*
X71781260Y-68896271D01*
X71780001Y-68818703D01*
X71778556Y-68751576D01*
X71776938Y-68697641D01*
X71775161Y-68659650D01*
X71774669Y-68652667D01*
X71767092Y-68582251D01*
X71755531Y-68527102D01*
X71737792Y-68479981D01*
X71711682Y-68433647D01*
X71705415Y-68424067D01*
X71680983Y-68387378D01*
X72586311Y-68387378D01*
X72586507Y-70072245D01*
G37*
X69073574Y-69466552D02*
X69225492Y-69486567D01*
X69360756Y-69520202D01*
X69480239Y-69567725D01*
X69584815Y-69629405D01*
X69662424Y-69692965D01*
X69731265Y-69767099D01*
X69785006Y-69846871D01*
X69827910Y-69939091D01*
X69843384Y-69982161D01*
X69856244Y-70021142D01*
X69867446Y-70057289D01*
X69877120Y-70092434D01*
X69885396Y-70128410D01*
X69892403Y-70167050D01*
X69898272Y-70210185D01*
X69903131Y-70259649D01*
X69907110Y-70317273D01*
X69910340Y-70384891D01*
X69912949Y-70464334D01*
X69915067Y-70557436D01*
X69916824Y-70666027D01*
X69918349Y-70791942D01*
X69919772Y-70937012D01*
X69921025Y-71079778D01*
X69922351Y-71235968D01*
X69923556Y-71371239D01*
X69924766Y-71487246D01*
X69926106Y-71585645D01*
X69927700Y-71668093D01*
X69929675Y-71736246D01*
X69932156Y-71791760D01*
X69935269Y-71836292D01*
X69939138Y-71871498D01*
X69943889Y-71899034D01*
X69949648Y-71920556D01*
X69956539Y-71937722D01*
X69964689Y-71952186D01*
X69974223Y-71965606D01*
X69985266Y-71979638D01*
X69989566Y-71985071D01*
X70005386Y-72007910D01*
X70012422Y-72023463D01*
X70012444Y-72023922D01*
X70001567Y-72026121D01*
X69970582Y-72028147D01*
X69921957Y-72029942D01*
X69858163Y-72031451D01*
X69781669Y-72032616D01*
X69694944Y-72033380D01*
X69600457Y-72033686D01*
X69589550Y-72033689D01*
X69166657Y-72033689D01*
X69163395Y-71937622D01*
X69160133Y-71841556D01*
X69098044Y-71892543D01*
X69000714Y-71960057D01*
X68890813Y-72014749D01*
X68804349Y-72044978D01*
X68735278Y-72059666D01*
X68651925Y-72069659D01*
X68562159Y-72074646D01*
X68473845Y-72074313D01*
X68394851Y-72068351D01*
X68358622Y-72062638D01*
X68218603Y-72024776D01*
X68092178Y-71969932D01*
X67980260Y-71898924D01*
X67883762Y-71812568D01*
X67803600Y-71711679D01*
X67740687Y-71597076D01*
X67696312Y-71470984D01*
X67683978Y-71414401D01*
X67676368Y-71352202D01*
X67672739Y-71277363D01*
X67672245Y-71243467D01*
X67672310Y-71240282D01*
X68432248Y-71240282D01*
X68441541Y-71315333D01*
X68469728Y-71379160D01*
X68518197Y-71434798D01*
X68523254Y-71439211D01*
X68571548Y-71474037D01*
X68623257Y-71496620D01*
X68683989Y-71508540D01*
X68759352Y-71511383D01*
X68777459Y-71510978D01*
X68831278Y-71508325D01*
X68871308Y-71502909D01*
X68906324Y-71492745D01*
X68945103Y-71475850D01*
X68955745Y-71470672D01*
X69016396Y-71434844D01*
X69063215Y-71392212D01*
X69075952Y-71376973D01*
X69120622Y-71320462D01*
X69120622Y-71124586D01*
X69120086Y-71045939D01*
X69118396Y-70987988D01*
X69115428Y-70948875D01*
X69111057Y-70926741D01*
X69106972Y-70920274D01*
X69091047Y-70917111D01*
X69057264Y-70914488D01*
X69010340Y-70912655D01*
X68954993Y-70911857D01*
X68946106Y-70911842D01*
X68825330Y-70917096D01*
X68722660Y-70933263D01*
X68636106Y-70960961D01*
X68563681Y-71000808D01*
X68508751Y-71047758D01*
X68464204Y-71105645D01*
X68439480Y-71168693D01*
X68432248Y-71240282D01*
X67672310Y-71240282D01*
X67674178Y-71149712D01*
X67682522Y-71070812D01*
X67698768Y-70999590D01*
X67724405Y-70928864D01*
X67748401Y-70876493D01*
X67807020Y-70781196D01*
X67885117Y-70693170D01*
X67980315Y-70614017D01*
X68090238Y-70545340D01*
X68212510Y-70488741D01*
X68344755Y-70445821D01*
X68409422Y-70430882D01*
X68545604Y-70408777D01*
X68694049Y-70394194D01*
X68845505Y-70387813D01*
X68972064Y-70389445D01*
X69133950Y-70396224D01*
X69126530Y-70337245D01*
X69107238Y-70238092D01*
X69076104Y-70157372D01*
X69032269Y-70094466D01*
X68974871Y-70048756D01*
X68903048Y-70019622D01*
X68815941Y-70006447D01*
X68712686Y-70008611D01*
X68674711Y-70012612D01*
X68533520Y-70037780D01*
X68396707Y-70078814D01*
X68302178Y-70116815D01*
X68257018Y-70136190D01*
X68218585Y-70151760D01*
X68192234Y-70161405D01*
X68184546Y-70163452D01*
X68174802Y-70154374D01*
X68158083Y-70125405D01*
X68134232Y-70076217D01*
X68103093Y-70006484D01*
X68064507Y-69915879D01*
X68057910Y-69900089D01*
X68027853Y-69827772D01*
X68000874Y-69762425D01*
X67978136Y-69706906D01*
X67960806Y-69664072D01*
X67950048Y-69636781D01*
X67946941Y-69627942D01*
X67956940Y-69623187D01*
X67983217Y-69617910D01*
X68011489Y-69614231D01*
X68041646Y-69609474D01*
X68089433Y-69600028D01*
X68150612Y-69586820D01*
X68220946Y-69570776D01*
X68296194Y-69552820D01*
X68324755Y-69545797D01*
X68429816Y-69520209D01*
X68517480Y-69500147D01*
X68592068Y-69484969D01*
X68657903Y-69474035D01*
X68719307Y-69466704D01*
X68780602Y-69462335D01*
X68846110Y-69460287D01*
X68904128Y-69459889D01*
X69073574Y-69466552D01*
G36*
X69073574Y-69466552D02*
G01*
X69225492Y-69486567D01*
X69360756Y-69520202D01*
X69480239Y-69567725D01*
X69584815Y-69629405D01*
X69662424Y-69692965D01*
X69731265Y-69767099D01*
X69785006Y-69846871D01*
X69827910Y-69939091D01*
X69843384Y-69982161D01*
X69856244Y-70021142D01*
X69867446Y-70057289D01*
X69877120Y-70092434D01*
X69885396Y-70128410D01*
X69892403Y-70167050D01*
X69898272Y-70210185D01*
X69903131Y-70259649D01*
X69907110Y-70317273D01*
X69910340Y-70384891D01*
X69912949Y-70464334D01*
X69915067Y-70557436D01*
X69916824Y-70666027D01*
X69918349Y-70791942D01*
X69919772Y-70937012D01*
X69921025Y-71079778D01*
X69922351Y-71235968D01*
X69923556Y-71371239D01*
X69924766Y-71487246D01*
X69926106Y-71585645D01*
X69927700Y-71668093D01*
X69929675Y-71736246D01*
X69932156Y-71791760D01*
X69935269Y-71836292D01*
X69939138Y-71871498D01*
X69943889Y-71899034D01*
X69949648Y-71920556D01*
X69956539Y-71937722D01*
X69964689Y-71952186D01*
X69974223Y-71965606D01*
X69985266Y-71979638D01*
X69989566Y-71985071D01*
X70005386Y-72007910D01*
X70012422Y-72023463D01*
X70012444Y-72023922D01*
X70001567Y-72026121D01*
X69970582Y-72028147D01*
X69921957Y-72029942D01*
X69858163Y-72031451D01*
X69781669Y-72032616D01*
X69694944Y-72033380D01*
X69600457Y-72033686D01*
X69589550Y-72033689D01*
X69166657Y-72033689D01*
X69163395Y-71937622D01*
X69160133Y-71841556D01*
X69098044Y-71892543D01*
X69000714Y-71960057D01*
X68890813Y-72014749D01*
X68804349Y-72044978D01*
X68735278Y-72059666D01*
X68651925Y-72069659D01*
X68562159Y-72074646D01*
X68473845Y-72074313D01*
X68394851Y-72068351D01*
X68358622Y-72062638D01*
X68218603Y-72024776D01*
X68092178Y-71969932D01*
X67980260Y-71898924D01*
X67883762Y-71812568D01*
X67803600Y-71711679D01*
X67740687Y-71597076D01*
X67696312Y-71470984D01*
X67683978Y-71414401D01*
X67676368Y-71352202D01*
X67672739Y-71277363D01*
X67672245Y-71243467D01*
X67672310Y-71240282D01*
X68432248Y-71240282D01*
X68441541Y-71315333D01*
X68469728Y-71379160D01*
X68518197Y-71434798D01*
X68523254Y-71439211D01*
X68571548Y-71474037D01*
X68623257Y-71496620D01*
X68683989Y-71508540D01*
X68759352Y-71511383D01*
X68777459Y-71510978D01*
X68831278Y-71508325D01*
X68871308Y-71502909D01*
X68906324Y-71492745D01*
X68945103Y-71475850D01*
X68955745Y-71470672D01*
X69016396Y-71434844D01*
X69063215Y-71392212D01*
X69075952Y-71376973D01*
X69120622Y-71320462D01*
X69120622Y-71124586D01*
X69120086Y-71045939D01*
X69118396Y-70987988D01*
X69115428Y-70948875D01*
X69111057Y-70926741D01*
X69106972Y-70920274D01*
X69091047Y-70917111D01*
X69057264Y-70914488D01*
X69010340Y-70912655D01*
X68954993Y-70911857D01*
X68946106Y-70911842D01*
X68825330Y-70917096D01*
X68722660Y-70933263D01*
X68636106Y-70960961D01*
X68563681Y-71000808D01*
X68508751Y-71047758D01*
X68464204Y-71105645D01*
X68439480Y-71168693D01*
X68432248Y-71240282D01*
X67672310Y-71240282D01*
X67674178Y-71149712D01*
X67682522Y-71070812D01*
X67698768Y-70999590D01*
X67724405Y-70928864D01*
X67748401Y-70876493D01*
X67807020Y-70781196D01*
X67885117Y-70693170D01*
X67980315Y-70614017D01*
X68090238Y-70545340D01*
X68212510Y-70488741D01*
X68344755Y-70445821D01*
X68409422Y-70430882D01*
X68545604Y-70408777D01*
X68694049Y-70394194D01*
X68845505Y-70387813D01*
X68972064Y-70389445D01*
X69133950Y-70396224D01*
X69126530Y-70337245D01*
X69107238Y-70238092D01*
X69076104Y-70157372D01*
X69032269Y-70094466D01*
X68974871Y-70048756D01*
X68903048Y-70019622D01*
X68815941Y-70006447D01*
X68712686Y-70008611D01*
X68674711Y-70012612D01*
X68533520Y-70037780D01*
X68396707Y-70078814D01*
X68302178Y-70116815D01*
X68257018Y-70136190D01*
X68218585Y-70151760D01*
X68192234Y-70161405D01*
X68184546Y-70163452D01*
X68174802Y-70154374D01*
X68158083Y-70125405D01*
X68134232Y-70076217D01*
X68103093Y-70006484D01*
X68064507Y-69915879D01*
X68057910Y-69900089D01*
X68027853Y-69827772D01*
X68000874Y-69762425D01*
X67978136Y-69706906D01*
X67960806Y-69664072D01*
X67950048Y-69636781D01*
X67946941Y-69627942D01*
X67956940Y-69623187D01*
X67983217Y-69617910D01*
X68011489Y-69614231D01*
X68041646Y-69609474D01*
X68089433Y-69600028D01*
X68150612Y-69586820D01*
X68220946Y-69570776D01*
X68296194Y-69552820D01*
X68324755Y-69545797D01*
X68429816Y-69520209D01*
X68517480Y-69500147D01*
X68592068Y-69484969D01*
X68657903Y-69474035D01*
X68719307Y-69466704D01*
X68780602Y-69462335D01*
X68846110Y-69460287D01*
X68904128Y-69459889D01*
X69073574Y-69466552D01*
G37*
X63453600Y-68089054D02*
X63464465Y-68202993D01*
X63496082Y-68310616D01*
X63546985Y-68409615D01*
X63615707Y-68497684D01*
X63700781Y-68572516D01*
X63797768Y-68630384D01*
X63904036Y-68670005D01*
X64011050Y-68688573D01*
X64116700Y-68687434D01*
X64218875Y-68667930D01*
X64315466Y-68631406D01*
X64404362Y-68579205D01*
X64483454Y-68512673D01*
X64550631Y-68433152D01*
X64603783Y-68341987D01*
X64640801Y-68240523D01*
X64659573Y-68130102D01*
X64661511Y-68080206D01*
X64661511Y-67992267D01*
X64713440Y-67992267D01*
X64749747Y-67995111D01*
X64776645Y-68006911D01*
X64803751Y-68030649D01*
X64842133Y-68069031D01*
X64842133Y-70260602D01*
X64842124Y-70522739D01*
X64842092Y-70763241D01*
X64842028Y-70983048D01*
X64841924Y-71183101D01*
X64841773Y-71364344D01*
X64841566Y-71527716D01*
X64841294Y-71674160D01*
X64840950Y-71804617D01*
X64840526Y-71920029D01*
X64840013Y-72021338D01*
X64839403Y-72109484D01*
X64838688Y-72185410D01*
X64837860Y-72250057D01*
X64836911Y-72304367D01*
X64835833Y-72349280D01*
X64834617Y-72385740D01*
X64833255Y-72414687D01*
X64831739Y-72437063D01*
X64830062Y-72453809D01*
X64828214Y-72465868D01*
X64826187Y-72474180D01*
X64823975Y-72479687D01*
X64822892Y-72481537D01*
X64818729Y-72488549D01*
X64815195Y-72494996D01*
X64811365Y-72500900D01*
X64806318Y-72506286D01*
X64799129Y-72511178D01*
X64788877Y-72515598D01*
X64774636Y-72519572D01*
X64755486Y-72523121D01*
X64730501Y-72526270D01*
X64698760Y-72529042D01*
X64659338Y-72531461D01*
X64611314Y-72533551D01*
X64553763Y-72535335D01*
X64485763Y-72536837D01*
X64406390Y-72538080D01*
X64314721Y-72539089D01*
X64209834Y-72539885D01*
X64090804Y-72540494D01*
X63956710Y-72540939D01*
X63806627Y-72541243D01*
X63639633Y-72541430D01*
X63454804Y-72541524D01*
X63251217Y-72541548D01*
X63027950Y-72541525D01*
X62784078Y-72541480D01*
X62518679Y-72541437D01*
X62480296Y-72541432D01*
X62213318Y-72541389D01*
X61967998Y-72541318D01*
X61743417Y-72541213D01*
X61538655Y-72541066D01*
X61352794Y-72540869D01*
X61184912Y-72540616D01*
X61034092Y-72540300D01*
X60899413Y-72539913D01*
X60779956Y-72539447D01*
X60674801Y-72538897D01*
X60583029Y-72538253D01*
X60503721Y-72537511D01*
X60435957Y-72536661D01*
X60378818Y-72535697D01*
X60331383Y-72534611D01*
X60292734Y-72533397D01*
X60261951Y-72532047D01*
X60238115Y-72530555D01*
X60220306Y-72528911D01*
X60207605Y-72527111D01*
X60199092Y-72525145D01*
X60194734Y-72523477D01*
X60186272Y-72519906D01*
X60178503Y-72517270D01*
X60171398Y-72514634D01*
X60164927Y-72511062D01*
X60159061Y-72505621D01*
X60153771Y-72497375D01*
X60149026Y-72485390D01*
X60144798Y-72468731D01*
X60141057Y-72446463D01*
X60137773Y-72417652D01*
X60134917Y-72381363D01*
X60132460Y-72336661D01*
X60130371Y-72282611D01*
X60128622Y-72218279D01*
X60127183Y-72142730D01*
X60126024Y-72055030D01*
X60125117Y-71954243D01*
X60124431Y-71839434D01*
X60123937Y-71709670D01*
X60123605Y-71564015D01*
X60123407Y-71401535D01*
X60123313Y-71221295D01*
X60123292Y-71022360D01*
X60123315Y-70803796D01*
X60123354Y-70564668D01*
X60123378Y-70304040D01*
X60123378Y-70261889D01*
X60123364Y-69998992D01*
X60123339Y-69757732D01*
X60123329Y-69537165D01*
X60123358Y-69336352D01*
X60123452Y-69154349D01*
X60123638Y-68990216D01*
X60123941Y-68843011D01*
X60124386Y-68711792D01*
X60124966Y-68601867D01*
X60427803Y-68601867D01*
X60467593Y-68659711D01*
X60478764Y-68675479D01*
X60488834Y-68689441D01*
X60497862Y-68702784D01*
X60505903Y-68716693D01*
X60513014Y-68732356D01*
X60519253Y-68750958D01*
X60524675Y-68773686D01*
X60529338Y-68801727D01*
X60533299Y-68836267D01*
X60536615Y-68878492D01*
X60539341Y-68929589D01*
X60541536Y-68990744D01*
X60543255Y-69063144D01*
X60544556Y-69147975D01*
X60545495Y-69246422D01*
X60546130Y-69359674D01*
X60546516Y-69488916D01*
X60546712Y-69635334D01*
X60546773Y-69800116D01*
X60546757Y-69984447D01*
X60546720Y-70189513D01*
X60546711Y-70312133D01*
X60546735Y-70529082D01*
X60546769Y-70724642D01*
X60546757Y-70899999D01*
X60546642Y-71056341D01*
X60546370Y-71194857D01*
X60545882Y-71316734D01*
X60545124Y-71423160D01*
X60544038Y-71515322D01*
X60542569Y-71594409D01*
X60540660Y-71661608D01*
X60538256Y-71718107D01*
X60535299Y-71765093D01*
X60531734Y-71803755D01*
X60527505Y-71835280D01*
X60522554Y-71860855D01*
X60516827Y-71881670D01*
X60510267Y-71898911D01*
X60502817Y-71913765D01*
X60494421Y-71927422D01*
X60485024Y-71941069D01*
X60474568Y-71955893D01*
X60468477Y-71964783D01*
X60429704Y-72022400D01*
X60961268Y-72022400D01*
X61084517Y-72022365D01*
X61187013Y-72022215D01*
X61270580Y-72021878D01*
X61337044Y-72021286D01*
X61388229Y-72020367D01*
X61425959Y-72019051D01*
X61452060Y-72017269D01*
X61468356Y-72014951D01*
X61476672Y-72012026D01*
X61478832Y-72008424D01*
X61476661Y-72004075D01*
X61475465Y-72002645D01*
X61450315Y-71965573D01*
X61424417Y-71912772D01*
X61400808Y-71850770D01*
X61392539Y-71824357D01*
X61387922Y-71806416D01*
X61384021Y-71785355D01*
X61380752Y-71759089D01*
X61378034Y-71725532D01*
X61375785Y-71682599D01*
X61373923Y-71628204D01*
X61372364Y-71560262D01*
X61371028Y-71476688D01*
X61369831Y-71375395D01*
X61368692Y-71254300D01*
X61368315Y-71209600D01*
X61367298Y-71084449D01*
X61366540Y-70980082D01*
X61366097Y-70894707D01*
X61366030Y-70826533D01*
X61366395Y-70773765D01*
X61367252Y-70734614D01*
X61368659Y-70707285D01*
X61370675Y-70689986D01*
X61373357Y-70680926D01*
X61376764Y-70678312D01*
X61380956Y-70680351D01*
X61385429Y-70684667D01*
X61395784Y-70697602D01*
X61417842Y-70726676D01*
X61450043Y-70769759D01*
X61490826Y-70824718D01*
X61538630Y-70889423D01*
X61591895Y-70961742D01*
X61649060Y-71039544D01*
X61708563Y-71120698D01*
X61768845Y-71203072D01*
X61828345Y-71284536D01*
X61885502Y-71362957D01*
X61938755Y-71436204D01*
X61986543Y-71502147D01*
X62027307Y-71558654D01*
X62059484Y-71603593D01*
X62081515Y-71634834D01*
X62086083Y-71641466D01*
X62109004Y-71678369D01*
X62135812Y-71726359D01*
X62161211Y-71775897D01*
X62164432Y-71782577D01*
X62186110Y-71830772D01*
X62198696Y-71868334D01*
X62204426Y-71904160D01*
X62205544Y-71946200D01*
X62204910Y-72022400D01*
X63359349Y-72022400D01*
X63354347Y-72017257D01*
X63566489Y-72017257D01*
X63577396Y-72018334D01*
X63608589Y-72019335D01*
X63657777Y-72020235D01*
X63722667Y-72021010D01*
X63800970Y-72021637D01*
X63890393Y-72022091D01*
X63988644Y-72022349D01*
X64057555Y-72022400D01*
X64162548Y-72022180D01*
X64259390Y-72021548D01*
X64345893Y-72020549D01*
X64419868Y-72019227D01*
X64479126Y-72017626D01*
X64521480Y-72015791D01*
X64544740Y-72013765D01*
X64548622Y-72012493D01*
X64540924Y-71997591D01*
X64532926Y-71989560D01*
X64519754Y-71972434D01*
X64502515Y-71942183D01*
X64490593Y-71917622D01*
X64463955Y-71858711D01*
X64460880Y-70681845D01*
X64457805Y-69504978D01*
X64012147Y-69504978D01*
X63914330Y-69505142D01*
X63823936Y-69505611D01*
X63743370Y-69506347D01*
X63675038Y-69507316D01*
X63621344Y-69508480D01*
X63584695Y-69509803D01*
X63567496Y-69511249D01*
X63566489Y-69511702D01*
X63572398Y-69524659D01*
X63586728Y-69546908D01*
X63587775Y-69548391D01*
X63606562Y-69578544D01*
X63626209Y-69615375D01*
X63630108Y-69623511D01*
X63633644Y-69631940D01*
X63636770Y-69642059D01*
X63639514Y-69655260D01*
X63641908Y-69672938D01*
X63643981Y-69696484D01*
X63645765Y-69727293D01*
X63647288Y-69766757D01*
X63648581Y-69816269D01*
X63649674Y-69877223D01*
X63650597Y-69951011D01*
X63651381Y-70039028D01*
X63652055Y-70142665D01*
X63652650Y-70263316D01*
X63653195Y-70402374D01*
X63653721Y-70561232D01*
X63654255Y-70740089D01*
X63654794Y-70925207D01*
X63655228Y-71089145D01*
X63655491Y-71233303D01*
X63655516Y-71359079D01*
X63655235Y-71467871D01*
X63654581Y-71561077D01*
X63653486Y-71640097D01*
X63651882Y-71706328D01*
X63649703Y-71761170D01*
X63646881Y-71806021D01*
X63643349Y-71842278D01*
X63639039Y-71871341D01*
X63633883Y-71894609D01*
X63627815Y-71913479D01*
X63620767Y-71929351D01*
X63612671Y-71943622D01*
X63603460Y-71957691D01*
X63594960Y-71970158D01*
X63577824Y-71996452D01*
X63567678Y-72014037D01*
X63566489Y-72017257D01*
X63354347Y-72017257D01*
X63268185Y-71928669D01*
X63221388Y-71878775D01*
X63171101Y-71822295D01*
X63125056Y-71768026D01*
X63104631Y-71742673D01*
X63074193Y-71703128D01*
X63034138Y-71649916D01*
X62985639Y-71584667D01*
X62929865Y-71509011D01*
X62867989Y-71424577D01*
X62801181Y-71332994D01*
X62730613Y-71235892D01*
X62657455Y-71134901D01*
X62582879Y-71031650D01*
X62508056Y-70927768D01*
X62434157Y-70824885D01*
X62362354Y-70724631D01*
X62293816Y-70628636D01*
X62229716Y-70538527D01*
X62171225Y-70455936D01*
X62119514Y-70382492D01*
X62075753Y-70319824D01*
X62041115Y-70269561D01*
X62016770Y-70233334D01*
X62003889Y-70212771D01*
X62002131Y-70208668D01*
X62010090Y-70197342D01*
X62030885Y-70170162D01*
X62063153Y-70128829D01*
X62105530Y-70075044D01*
X62156653Y-70010506D01*
X62215159Y-69936918D01*
X62279686Y-69855978D01*
X62348869Y-69769388D01*
X62421347Y-69678848D01*
X62495754Y-69586060D01*
X62555483Y-69511702D01*
X62570730Y-69492722D01*
X62644910Y-69400537D01*
X62716931Y-69311204D01*
X62785431Y-69226424D01*
X62849045Y-69147898D01*
X62906412Y-69077326D01*
X62956167Y-69016409D01*
X62996948Y-68966847D01*
X63014112Y-68946178D01*
X63100404Y-68845516D01*
X63177003Y-68762259D01*
X63245817Y-68694438D01*
X63308752Y-68640089D01*
X63318133Y-68632722D01*
X63357644Y-68602117D01*
X62225884Y-68601867D01*
X62231173Y-68649844D01*
X62227870Y-68707188D01*
X62206339Y-68775463D01*
X62166365Y-68855212D01*
X62121057Y-68927495D01*
X62104839Y-68950140D01*
X62076786Y-68987696D01*
X62038570Y-69038021D01*
X61991863Y-69098973D01*
X61938339Y-69168411D01*
X61879669Y-69244194D01*
X61817525Y-69324180D01*
X61753579Y-69406228D01*
X61689505Y-69488196D01*
X61626973Y-69567943D01*
X61567657Y-69643327D01*
X61513229Y-69712207D01*
X61465361Y-69772442D01*
X61425725Y-69821889D01*
X61395994Y-69858408D01*
X61377839Y-69879858D01*
X61374780Y-69883156D01*
X61371921Y-69875149D01*
X61369707Y-69844855D01*
X61368143Y-69792556D01*
X61367233Y-69718531D01*
X61366980Y-69623063D01*
X61367387Y-69506434D01*
X61368296Y-69386445D01*
X61369618Y-69254333D01*
X61371143Y-69142594D01*
X61373119Y-69049025D01*
X61375794Y-68971419D01*
X61379418Y-68907574D01*
X61384239Y-68855283D01*
X61390506Y-68812344D01*
X61398468Y-68776551D01*
X61408373Y-68745700D01*
X61420469Y-68717586D01*
X61435007Y-68690005D01*
X61449689Y-68664966D01*
X61487686Y-68601867D01*
X60427803Y-68601867D01*
X60124966Y-68601867D01*
X60124999Y-68595617D01*
X60125805Y-68493544D01*
X60126830Y-68404633D01*
X60128100Y-68327941D01*
X60129640Y-68262527D01*
X60131476Y-68207449D01*
X60133633Y-68161765D01*
X60136137Y-68124534D01*
X60139013Y-68094813D01*
X60142287Y-68071662D01*
X60145985Y-68054139D01*
X60150131Y-68041301D01*
X60154753Y-68032208D01*
X60159874Y-68025918D01*
X60165522Y-68021488D01*
X60171721Y-68017978D01*
X60178496Y-68014445D01*
X60184492Y-68010876D01*
X60189725Y-68008300D01*
X60197901Y-68005972D01*
X60210114Y-68003878D01*
X60227459Y-68002007D01*
X60251031Y-68000347D01*
X60281923Y-67998884D01*
X60321232Y-67997608D01*
X60370050Y-67996504D01*
X60429473Y-67995561D01*
X60500596Y-67994767D01*
X60584512Y-67994109D01*
X60682317Y-67993575D01*
X60795106Y-67993153D01*
X60923971Y-67992829D01*
X61070009Y-67992592D01*
X61234314Y-67992430D01*
X61417980Y-67992330D01*
X61622103Y-67992280D01*
X61833247Y-67992267D01*
X63453600Y-67992267D01*
X63453600Y-68089054D01*
G36*
X63453600Y-68089054D02*
G01*
X63464465Y-68202993D01*
X63496082Y-68310616D01*
X63546985Y-68409615D01*
X63615707Y-68497684D01*
X63700781Y-68572516D01*
X63797768Y-68630384D01*
X63904036Y-68670005D01*
X64011050Y-68688573D01*
X64116700Y-68687434D01*
X64218875Y-68667930D01*
X64315466Y-68631406D01*
X64404362Y-68579205D01*
X64483454Y-68512673D01*
X64550631Y-68433152D01*
X64603783Y-68341987D01*
X64640801Y-68240523D01*
X64659573Y-68130102D01*
X64661511Y-68080206D01*
X64661511Y-67992267D01*
X64713440Y-67992267D01*
X64749747Y-67995111D01*
X64776645Y-68006911D01*
X64803751Y-68030649D01*
X64842133Y-68069031D01*
X64842133Y-70260602D01*
X64842124Y-70522739D01*
X64842092Y-70763241D01*
X64842028Y-70983048D01*
X64841924Y-71183101D01*
X64841773Y-71364344D01*
X64841566Y-71527716D01*
X64841294Y-71674160D01*
X64840950Y-71804617D01*
X64840526Y-71920029D01*
X64840013Y-72021338D01*
X64839403Y-72109484D01*
X64838688Y-72185410D01*
X64837860Y-72250057D01*
X64836911Y-72304367D01*
X64835833Y-72349280D01*
X64834617Y-72385740D01*
X64833255Y-72414687D01*
X64831739Y-72437063D01*
X64830062Y-72453809D01*
X64828214Y-72465868D01*
X64826187Y-72474180D01*
X64823975Y-72479687D01*
X64822892Y-72481537D01*
X64818729Y-72488549D01*
X64815195Y-72494996D01*
X64811365Y-72500900D01*
X64806318Y-72506286D01*
X64799129Y-72511178D01*
X64788877Y-72515598D01*
X64774636Y-72519572D01*
X64755486Y-72523121D01*
X64730501Y-72526270D01*
X64698760Y-72529042D01*
X64659338Y-72531461D01*
X64611314Y-72533551D01*
X64553763Y-72535335D01*
X64485763Y-72536837D01*
X64406390Y-72538080D01*
X64314721Y-72539089D01*
X64209834Y-72539885D01*
X64090804Y-72540494D01*
X63956710Y-72540939D01*
X63806627Y-72541243D01*
X63639633Y-72541430D01*
X63454804Y-72541524D01*
X63251217Y-72541548D01*
X63027950Y-72541525D01*
X62784078Y-72541480D01*
X62518679Y-72541437D01*
X62480296Y-72541432D01*
X62213318Y-72541389D01*
X61967998Y-72541318D01*
X61743417Y-72541213D01*
X61538655Y-72541066D01*
X61352794Y-72540869D01*
X61184912Y-72540616D01*
X61034092Y-72540300D01*
X60899413Y-72539913D01*
X60779956Y-72539447D01*
X60674801Y-72538897D01*
X60583029Y-72538253D01*
X60503721Y-72537511D01*
X60435957Y-72536661D01*
X60378818Y-72535697D01*
X60331383Y-72534611D01*
X60292734Y-72533397D01*
X60261951Y-72532047D01*
X60238115Y-72530555D01*
X60220306Y-72528911D01*
X60207605Y-72527111D01*
X60199092Y-72525145D01*
X60194734Y-72523477D01*
X60186272Y-72519906D01*
X60178503Y-72517270D01*
X60171398Y-72514634D01*
X60164927Y-72511062D01*
X60159061Y-72505621D01*
X60153771Y-72497375D01*
X60149026Y-72485390D01*
X60144798Y-72468731D01*
X60141057Y-72446463D01*
X60137773Y-72417652D01*
X60134917Y-72381363D01*
X60132460Y-72336661D01*
X60130371Y-72282611D01*
X60128622Y-72218279D01*
X60127183Y-72142730D01*
X60126024Y-72055030D01*
X60125117Y-71954243D01*
X60124431Y-71839434D01*
X60123937Y-71709670D01*
X60123605Y-71564015D01*
X60123407Y-71401535D01*
X60123313Y-71221295D01*
X60123292Y-71022360D01*
X60123315Y-70803796D01*
X60123354Y-70564668D01*
X60123378Y-70304040D01*
X60123378Y-70261889D01*
X60123364Y-69998992D01*
X60123339Y-69757732D01*
X60123329Y-69537165D01*
X60123358Y-69336352D01*
X60123452Y-69154349D01*
X60123638Y-68990216D01*
X60123941Y-68843011D01*
X60124386Y-68711792D01*
X60124966Y-68601867D01*
X60427803Y-68601867D01*
X60467593Y-68659711D01*
X60478764Y-68675479D01*
X60488834Y-68689441D01*
X60497862Y-68702784D01*
X60505903Y-68716693D01*
X60513014Y-68732356D01*
X60519253Y-68750958D01*
X60524675Y-68773686D01*
X60529338Y-68801727D01*
X60533299Y-68836267D01*
X60536615Y-68878492D01*
X60539341Y-68929589D01*
X60541536Y-68990744D01*
X60543255Y-69063144D01*
X60544556Y-69147975D01*
X60545495Y-69246422D01*
X60546130Y-69359674D01*
X60546516Y-69488916D01*
X60546712Y-69635334D01*
X60546773Y-69800116D01*
X60546757Y-69984447D01*
X60546720Y-70189513D01*
X60546711Y-70312133D01*
X60546735Y-70529082D01*
X60546769Y-70724642D01*
X60546757Y-70899999D01*
X60546642Y-71056341D01*
X60546370Y-71194857D01*
X60545882Y-71316734D01*
X60545124Y-71423160D01*
X60544038Y-71515322D01*
X60542569Y-71594409D01*
X60540660Y-71661608D01*
X60538256Y-71718107D01*
X60535299Y-71765093D01*
X60531734Y-71803755D01*
X60527505Y-71835280D01*
X60522554Y-71860855D01*
X60516827Y-71881670D01*
X60510267Y-71898911D01*
X60502817Y-71913765D01*
X60494421Y-71927422D01*
X60485024Y-71941069D01*
X60474568Y-71955893D01*
X60468477Y-71964783D01*
X60429704Y-72022400D01*
X60961268Y-72022400D01*
X61084517Y-72022365D01*
X61187013Y-72022215D01*
X61270580Y-72021878D01*
X61337044Y-72021286D01*
X61388229Y-72020367D01*
X61425959Y-72019051D01*
X61452060Y-72017269D01*
X61468356Y-72014951D01*
X61476672Y-72012026D01*
X61478832Y-72008424D01*
X61476661Y-72004075D01*
X61475465Y-72002645D01*
X61450315Y-71965573D01*
X61424417Y-71912772D01*
X61400808Y-71850770D01*
X61392539Y-71824357D01*
X61387922Y-71806416D01*
X61384021Y-71785355D01*
X61380752Y-71759089D01*
X61378034Y-71725532D01*
X61375785Y-71682599D01*
X61373923Y-71628204D01*
X61372364Y-71560262D01*
X61371028Y-71476688D01*
X61369831Y-71375395D01*
X61368692Y-71254300D01*
X61368315Y-71209600D01*
X61367298Y-71084449D01*
X61366540Y-70980082D01*
X61366097Y-70894707D01*
X61366030Y-70826533D01*
X61366395Y-70773765D01*
X61367252Y-70734614D01*
X61368659Y-70707285D01*
X61370675Y-70689986D01*
X61373357Y-70680926D01*
X61376764Y-70678312D01*
X61380956Y-70680351D01*
X61385429Y-70684667D01*
X61395784Y-70697602D01*
X61417842Y-70726676D01*
X61450043Y-70769759D01*
X61490826Y-70824718D01*
X61538630Y-70889423D01*
X61591895Y-70961742D01*
X61649060Y-71039544D01*
X61708563Y-71120698D01*
X61768845Y-71203072D01*
X61828345Y-71284536D01*
X61885502Y-71362957D01*
X61938755Y-71436204D01*
X61986543Y-71502147D01*
X62027307Y-71558654D01*
X62059484Y-71603593D01*
X62081515Y-71634834D01*
X62086083Y-71641466D01*
X62109004Y-71678369D01*
X62135812Y-71726359D01*
X62161211Y-71775897D01*
X62164432Y-71782577D01*
X62186110Y-71830772D01*
X62198696Y-71868334D01*
X62204426Y-71904160D01*
X62205544Y-71946200D01*
X62204910Y-72022400D01*
X63359349Y-72022400D01*
X63354347Y-72017257D01*
X63566489Y-72017257D01*
X63577396Y-72018334D01*
X63608589Y-72019335D01*
X63657777Y-72020235D01*
X63722667Y-72021010D01*
X63800970Y-72021637D01*
X63890393Y-72022091D01*
X63988644Y-72022349D01*
X64057555Y-72022400D01*
X64162548Y-72022180D01*
X64259390Y-72021548D01*
X64345893Y-72020549D01*
X64419868Y-72019227D01*
X64479126Y-72017626D01*
X64521480Y-72015791D01*
X64544740Y-72013765D01*
X64548622Y-72012493D01*
X64540924Y-71997591D01*
X64532926Y-71989560D01*
X64519754Y-71972434D01*
X64502515Y-71942183D01*
X64490593Y-71917622D01*
X64463955Y-71858711D01*
X64460880Y-70681845D01*
X64457805Y-69504978D01*
X64012147Y-69504978D01*
X63914330Y-69505142D01*
X63823936Y-69505611D01*
X63743370Y-69506347D01*
X63675038Y-69507316D01*
X63621344Y-69508480D01*
X63584695Y-69509803D01*
X63567496Y-69511249D01*
X63566489Y-69511702D01*
X63572398Y-69524659D01*
X63586728Y-69546908D01*
X63587775Y-69548391D01*
X63606562Y-69578544D01*
X63626209Y-69615375D01*
X63630108Y-69623511D01*
X63633644Y-69631940D01*
X63636770Y-69642059D01*
X63639514Y-69655260D01*
X63641908Y-69672938D01*
X63643981Y-69696484D01*
X63645765Y-69727293D01*
X63647288Y-69766757D01*
X63648581Y-69816269D01*
X63649674Y-69877223D01*
X63650597Y-69951011D01*
X63651381Y-70039028D01*
X63652055Y-70142665D01*
X63652650Y-70263316D01*
X63653195Y-70402374D01*
X63653721Y-70561232D01*
X63654255Y-70740089D01*
X63654794Y-70925207D01*
X63655228Y-71089145D01*
X63655491Y-71233303D01*
X63655516Y-71359079D01*
X63655235Y-71467871D01*
X63654581Y-71561077D01*
X63653486Y-71640097D01*
X63651882Y-71706328D01*
X63649703Y-71761170D01*
X63646881Y-71806021D01*
X63643349Y-71842278D01*
X63639039Y-71871341D01*
X63633883Y-71894609D01*
X63627815Y-71913479D01*
X63620767Y-71929351D01*
X63612671Y-71943622D01*
X63603460Y-71957691D01*
X63594960Y-71970158D01*
X63577824Y-71996452D01*
X63567678Y-72014037D01*
X63566489Y-72017257D01*
X63354347Y-72017257D01*
X63268185Y-71928669D01*
X63221388Y-71878775D01*
X63171101Y-71822295D01*
X63125056Y-71768026D01*
X63104631Y-71742673D01*
X63074193Y-71703128D01*
X63034138Y-71649916D01*
X62985639Y-71584667D01*
X62929865Y-71509011D01*
X62867989Y-71424577D01*
X62801181Y-71332994D01*
X62730613Y-71235892D01*
X62657455Y-71134901D01*
X62582879Y-71031650D01*
X62508056Y-70927768D01*
X62434157Y-70824885D01*
X62362354Y-70724631D01*
X62293816Y-70628636D01*
X62229716Y-70538527D01*
X62171225Y-70455936D01*
X62119514Y-70382492D01*
X62075753Y-70319824D01*
X62041115Y-70269561D01*
X62016770Y-70233334D01*
X62003889Y-70212771D01*
X62002131Y-70208668D01*
X62010090Y-70197342D01*
X62030885Y-70170162D01*
X62063153Y-70128829D01*
X62105530Y-70075044D01*
X62156653Y-70010506D01*
X62215159Y-69936918D01*
X62279686Y-69855978D01*
X62348869Y-69769388D01*
X62421347Y-69678848D01*
X62495754Y-69586060D01*
X62555483Y-69511702D01*
X62570730Y-69492722D01*
X62644910Y-69400537D01*
X62716931Y-69311204D01*
X62785431Y-69226424D01*
X62849045Y-69147898D01*
X62906412Y-69077326D01*
X62956167Y-69016409D01*
X62996948Y-68966847D01*
X63014112Y-68946178D01*
X63100404Y-68845516D01*
X63177003Y-68762259D01*
X63245817Y-68694438D01*
X63308752Y-68640089D01*
X63318133Y-68632722D01*
X63357644Y-68602117D01*
X62225884Y-68601867D01*
X62231173Y-68649844D01*
X62227870Y-68707188D01*
X62206339Y-68775463D01*
X62166365Y-68855212D01*
X62121057Y-68927495D01*
X62104839Y-68950140D01*
X62076786Y-68987696D01*
X62038570Y-69038021D01*
X61991863Y-69098973D01*
X61938339Y-69168411D01*
X61879669Y-69244194D01*
X61817525Y-69324180D01*
X61753579Y-69406228D01*
X61689505Y-69488196D01*
X61626973Y-69567943D01*
X61567657Y-69643327D01*
X61513229Y-69712207D01*
X61465361Y-69772442D01*
X61425725Y-69821889D01*
X61395994Y-69858408D01*
X61377839Y-69879858D01*
X61374780Y-69883156D01*
X61371921Y-69875149D01*
X61369707Y-69844855D01*
X61368143Y-69792556D01*
X61367233Y-69718531D01*
X61366980Y-69623063D01*
X61367387Y-69506434D01*
X61368296Y-69386445D01*
X61369618Y-69254333D01*
X61371143Y-69142594D01*
X61373119Y-69049025D01*
X61375794Y-68971419D01*
X61379418Y-68907574D01*
X61384239Y-68855283D01*
X61390506Y-68812344D01*
X61398468Y-68776551D01*
X61408373Y-68745700D01*
X61420469Y-68717586D01*
X61435007Y-68690005D01*
X61449689Y-68664966D01*
X61487686Y-68601867D01*
X60427803Y-68601867D01*
X60124966Y-68601867D01*
X60124999Y-68595617D01*
X60125805Y-68493544D01*
X60126830Y-68404633D01*
X60128100Y-68327941D01*
X60129640Y-68262527D01*
X60131476Y-68207449D01*
X60133633Y-68161765D01*
X60136137Y-68124534D01*
X60139013Y-68094813D01*
X60142287Y-68071662D01*
X60145985Y-68054139D01*
X60150131Y-68041301D01*
X60154753Y-68032208D01*
X60159874Y-68025918D01*
X60165522Y-68021488D01*
X60171721Y-68017978D01*
X60178496Y-68014445D01*
X60184492Y-68010876D01*
X60189725Y-68008300D01*
X60197901Y-68005972D01*
X60210114Y-68003878D01*
X60227459Y-68002007D01*
X60251031Y-68000347D01*
X60281923Y-67998884D01*
X60321232Y-67997608D01*
X60370050Y-67996504D01*
X60429473Y-67995561D01*
X60500596Y-67994767D01*
X60584512Y-67994109D01*
X60682317Y-67993575D01*
X60795106Y-67993153D01*
X60923971Y-67992829D01*
X61070009Y-67992592D01*
X61234314Y-67992430D01*
X61417980Y-67992330D01*
X61622103Y-67992280D01*
X61833247Y-67992267D01*
X63453600Y-67992267D01*
X63453600Y-68089054D01*
G37*
%TD*%
M02*
